<svg width="54" height="54" viewBox="0 0 54 54" fill="none" xmlns="http://www.w3.org/2000/svg">
    <path d="M0 0H54V54H0V0Z" fill="#E7E7E7" />
    <path fill-rule="evenodd" clip-rule="evenodd"
        d="M27.5914 42.2936C27.3913 42.2936 27.1697 42.2913 26.909 42.2868C26.5036 42.2795 25.3171 42.2449 24.8976 42.2212C23.9304 42.1666 22.975 42.0788 22.0578 41.9606C21.0515 41.8309 20.0715 41.6621 19.1457 41.4588C18.137 41.2381 17.1739 40.9724 16.2831 40.6694C15.3159 40.3409 14.41 39.9619 13.5916 39.5434C12.7108 39.0934 11.9046 38.5848 11.1949 38.0302C10.4378 37.4383 9.7736 36.7814 9.22128 36.0771C8.63439 35.3296 8.15851 34.5093 7.80546 33.6385C7.43422 32.7213 7.19083 31.7259 7.083 30.68C6.22132 22.3479 12.3268 18.348 13.4637 17.6801C13.3509 16.7975 13.0916 13.3398 15.7517 12.2652C16.1866 12.0891 16.6407 12.0004 17.1011 12.0004C19.1871 12.0004 20.8627 13.7848 21.299 14.2939C21.9859 14.1879 24.7143 13.7921 27.0077 13.853C27.1583 13.8485 27.3253 13.8466 27.4936 13.8466C29.6642 13.8466 32.0632 14.1951 32.701 14.2934C33.1369 13.7843 34.8125 12 36.8989 12C37.3598 12 37.8138 12.0887 38.2483 12.2648C40.9084 13.3394 40.6491 16.797 40.5363 17.6796C41.6732 18.3475 47.7787 22.3475 46.917 30.6795C46.867 31.1627 46.7882 31.6376 46.6827 32.0926C46.4589 33.058 46.1058 33.9729 45.6336 34.8114C45.1859 35.6058 44.6208 36.3505 43.9552 37.0239C43.3292 37.6581 42.5986 38.2459 41.7837 38.7709C41.0212 39.2618 40.1687 39.7095 39.2497 40.1007C38.3939 40.4656 37.4608 40.7909 36.4762 41.0666C35.5672 41.3218 34.5946 41.5406 33.585 41.7181C32.6619 41.88 31.6901 42.0101 30.6965 42.1039C30.3444 42.1371 29.9913 42.1685 29.6387 42.1949C28.7306 42.2654 28.2907 42.2936 27.5914 42.2936Z"
        fill="#ADADAD" />
</svg>
