<svg width="134" height="156" viewBox="0 0 134 156" fill="none" xmlns="http://www.w3.org/2000/svg">
    <path
        d="M26.5395 79.6567C26.5395 79.6567 8.38847 81.1297 3.71647 88.4277C-0.952528 95.7257 11.7215 106.327 11.7215 106.327L19.4705 102.5C19.4705 102.5 13.0525 95.6977 13.9945 93.3647C14.9355 91.0337 25.3655 90.0587 25.3655 90.0587L26.5395 79.6567Z"
        fill="#F2CB75" />
    <path d="M5.14555 88.7167C5.05155 88.8277 5.29855 88.4987 5.14555 88.7167V88.7167Z"
        fill="black" />
    <path
        d="M24.9995 81.3628C24.9835 81.3648 24.9685 81.3668 24.9525 81.3688C24.9525 81.3688 24.9524 81.3698 24.9504 81.3698C24.9704 81.3658 24.9745 81.3658 24.9995 81.3628Z"
        fill="black" />
    <path
        d="M11.0425 105.164C11.3375 105.018 11.6325 104.872 11.9275 104.727C12.1755 104.949 12.4255 105.165 12.6745 105.375C12.1295 105.305 11.5855 105.234 11.0425 105.164Z"
        fill="black" />
    <path d="M4.07246 91.2338C4.05346 91.3128 4.09846 90.9618 4.07246 91.2338V91.2338Z"
        fill="black" />
    <path
        d="M18.5186 103.451C18.0976 103.005 17.6976 102.541 17.2986 102.075C17.7956 101.829 18.2926 101.584 18.7896 101.338C18.6986 102.042 18.6086 102.747 18.5186 103.451Z"
        fill="black" />
    <path
        d="M4.08154 92.9088C4.08354 92.9258 4.08353 92.9428 4.08653 92.9598C4.08153 92.9158 4.08154 92.9078 4.08154 92.9088Z"
        fill="black" />
    <path d="M4.43542 89.9098C4.41642 89.9428 4.45942 89.8388 4.43542 89.9098V89.9098Z"
        fill="black" />
    <path
        d="M15.2476 93.8038C15.2596 93.7848 15.2625 93.7918 15.2505 93.8438C15.2495 93.8318 15.2506 93.8168 15.2486 93.8068C15.2486 93.8058 15.2476 93.8058 15.2476 93.8038Z"
        fill="black" />
    <path d="M15.2545 93.8998V93.9038L15.2476 93.9088L15.2545 93.8998Z" fill="black" />
    <path
        d="M15.2465 93.8618C15.2495 93.8528 15.2495 93.8508 15.2505 93.8438C15.2515 93.8537 15.2525 93.8647 15.2525 93.8777C15.2455 93.8847 15.2365 93.8987 15.2275 93.9117C15.2345 93.9027 15.2385 93.8888 15.2465 93.8618Z"
        fill="black" />
    <path
        d="M15.2276 93.9117C15.2256 93.9147 15.2246 93.9167 15.2236 93.9187C15.2146 93.9277 15.2086 93.9157 15.2056 93.8937C15.2206 93.8567 15.2366 93.8217 15.2476 93.8037C15.2476 93.8057 15.2486 93.8057 15.2486 93.8067C15.2506 93.8167 15.2496 93.8317 15.2506 93.8437C15.2496 93.8507 15.2496 93.8527 15.2466 93.8617C15.2386 93.8887 15.2346 93.9027 15.2276 93.9117Z"
        fill="black" />
    <path
        d="M15.1946 93.9588C15.1976 93.9528 15.1986 93.9528 15.2036 93.9448C15.2106 93.9318 15.2166 93.9278 15.2236 93.9188C15.2236 93.9168 15.2256 93.9158 15.2276 93.9118C15.2376 93.8988 15.2466 93.8848 15.2526 93.8778C15.2526 93.8848 15.2546 93.8918 15.2546 93.8988C15.2506 93.9028 15.2516 93.9038 15.2476 93.9088C15.2306 93.9268 15.2126 93.9418 15.1946 93.9588Z"
        fill="black" />
    <path
        d="M1.4555 90.6618C2.0495 86.7648 5.6135 84.2928 8.9465 82.7708C12.6835 81.0638 16.7105 80.0518 20.7425 79.3238C22.6385 78.9818 24.5545 78.6838 26.4745 78.4788L26.2095 81.2168C25.7895 81.2648 25.3705 81.3128 24.9515 81.3668C24.9675 81.3648 24.9825 81.3628 24.9985 81.3608C24.9735 81.3638 24.9695 81.3648 24.9495 81.3678C24.9485 81.3678 24.9475 81.3678 24.9465 81.3678C24.8845 81.3768 24.7345 81.3958 24.9495 81.3678C24.9515 81.3678 24.9515 81.3668 24.9515 81.3668C24.8795 81.3768 24.8075 81.3878 24.7355 81.3958C24.5725 81.4188 24.4095 81.4418 24.2465 81.4658C23.8185 81.5288 23.3925 81.5918 22.9675 81.6618C19.2425 82.2608 15.5135 83.0808 11.9755 84.4058C10.3885 85.0008 8.7135 85.7718 7.19051 86.8298C6.75651 87.1308 6.79951 87.0948 6.42651 87.4128C6.09751 87.6928 5.7815 87.9918 5.4895 88.3118C5.3735 88.4388 5.26451 88.5688 5.15651 88.7018C5.15051 88.7088 5.14851 88.7098 5.14351 88.7148C5.29651 88.4968 5.04951 88.8258 5.14351 88.7148C5.13751 88.7248 5.13451 88.7288 5.12651 88.7408C5.08451 88.8008 5.0395 88.8598 4.9985 88.9218C4.8805 89.0968 4.7675 89.2758 4.6645 89.4628C4.5985 89.5808 4.5365 89.7018 4.4765 89.8238C4.4525 89.8758 4.4415 89.8978 4.4335 89.9078C4.4575 89.8368 4.4145 89.9398 4.4335 89.9078C4.4285 89.9258 4.4195 89.9498 4.4035 89.9928C4.2575 90.3818 4.1555 90.7768 4.0805 91.1828C4.0765 91.2088 4.0725 91.2208 4.0715 91.2308C4.0965 90.9598 4.0515 91.3098 4.0715 91.2308C4.0695 91.2468 4.06851 91.2538 4.06651 91.2728C4.05851 91.3588 4.0505 91.4438 4.0455 91.5308C4.0275 91.7878 4.02451 92.0478 4.03351 92.3068C4.04151 92.5068 4.0575 92.7088 4.0805 92.9068C4.0805 92.9048 4.08051 92.9138 4.08551 92.9578C4.08251 92.9408 4.0825 92.9238 4.0805 92.9068C4.0885 92.9218 4.15051 93.3188 4.16351 93.3858C4.25351 93.8298 4.3765 94.2668 4.5195 94.6958C4.7985 95.5268 5.12051 96.2068 5.60751 97.0758C6.07751 97.9108 6.6045 98.7158 7.1705 99.4908C8.4415 101.236 10.1465 103.13 11.9255 104.726C11.6305 104.871 11.3355 105.017 11.0405 105.163C11.5835 105.232 12.1275 105.304 12.6725 105.375C12.4235 105.165 12.1735 104.948 11.9255 104.727C13.7165 103.842 15.5065 102.957 17.2965 102.075C17.6945 102.541 18.0955 103.005 18.5165 103.451C18.6065 102.747 18.6975 102.042 18.7875 101.338C18.2905 101.584 17.7935 101.829 17.2965 102.075C16.6825 101.358 16.0845 100.628 15.5125 99.8798C14.2675 98.2558 12.6525 96.1968 12.5575 94.0568C12.4645 91.9468 14.5355 91.0308 16.2005 90.3858C18.2635 89.5898 20.4475 89.0858 22.6065 88.6298C23.5835 88.4248 24.5645 88.2368 25.5485 88.0618L25.2815 90.8198C22.9425 91.2478 20.6125 91.7768 18.3555 92.4858C17.9095 92.6268 17.4645 92.7748 17.0275 92.9418C16.9165 92.9828 16.8065 93.0258 16.6955 93.0708C16.6645 93.0828 16.6485 93.0888 16.6305 93.0948C16.8565 92.9928 16.4545 93.1638 16.6305 93.0948C16.6195 93.1008 16.6155 93.1028 16.5995 93.1108C16.4085 93.1958 16.2185 93.2848 16.0315 93.3818C15.8655 93.4678 15.7005 93.5588 15.5435 93.6588C15.4475 93.7198 15.2265 93.9358 15.3375 93.8188C15.3655 93.7898 15.3945 93.7588 15.4205 93.7318C15.3815 93.7728 15.3555 93.7988 15.3375 93.8188C15.3095 93.8478 15.2815 93.8758 15.2535 93.9038C15.2535 93.9028 15.2535 93.9018 15.2535 93.8998C15.2835 93.8608 15.2785 93.8498 15.2515 93.8788C15.2515 93.8648 15.2505 93.8548 15.2495 93.8448C15.2615 93.7928 15.2585 93.7858 15.2465 93.8048C15.2105 93.6458 15.1925 93.8208 15.2045 93.8948C15.1895 93.9298 15.1775 93.9618 15.1745 93.9778C15.1585 93.9928 15.1415 94.0108 15.1255 94.0238C15.1485 94.0048 15.1575 93.9938 15.1745 93.9788C15.1725 93.9898 15.1785 93.9848 15.1935 93.9618C15.2125 93.9428 15.2375 93.9238 15.2475 93.9098C15.2495 93.9078 15.2515 93.9058 15.2545 93.9038C15.2545 93.9568 15.2525 94.0088 15.2515 94.0518C15.1575 93.7848 15.2515 94.3428 15.2515 94.0568C15.2515 94.0558 15.2515 94.0538 15.2515 94.0518C15.2525 94.0548 15.2535 94.0558 15.2545 94.0578C15.2755 94.1168 15.2825 94.1878 15.2995 94.2478C15.3465 94.4338 15.4115 94.6138 15.4805 94.7948C15.4535 94.7268 15.4395 94.6948 15.5005 94.8538C15.4925 94.8338 15.4885 94.8158 15.4805 94.7948C15.5055 94.8548 15.5415 94.9418 15.5495 94.9598C15.6125 95.0888 15.6735 95.2198 15.7405 95.3478C16.2365 96.3068 16.8545 97.2038 17.4975 98.0708C18.2885 99.1358 19.3755 100.439 20.4225 101.549C20.9775 102.141 20.9535 103.266 20.1505 103.663C17.5675 104.939 14.9845 106.214 12.4025 107.49C11.8185 107.778 11.2585 107.689 10.7715 107.279C8.91751 105.727 7.2315 103.92 5.7415 102.023C3.2415 98.8478 0.812504 94.8758 1.4555 90.6618Z"
        fill="#B97C29" />
    <path
        d="M15.4805 94.7947C15.4885 94.8157 15.4925 94.8337 15.5005 94.8537C15.4395 94.6957 15.4525 94.7267 15.4805 94.7947Z"
        fill="black" />
    <path
        d="M15.2515 94.0517C15.2515 94.0537 15.2515 94.0558 15.2515 94.0568C15.2515 94.3428 15.1575 93.7847 15.2515 94.0517Z"
        fill="black" />
    <path
        d="M15.1936 93.9607C15.1866 93.9667 15.1806 93.9717 15.1746 93.9777C15.1746 93.9767 15.1746 93.9777 15.1746 93.9767C15.1806 93.9707 15.1885 93.9647 15.1945 93.9587C15.1945 93.9597 15.1936 93.9607 15.1936 93.9607Z"
        fill="black" />
    <path
        d="M15.3384 93.8188C15.3564 93.7988 15.3824 93.7728 15.4214 93.7318C15.3954 93.7588 15.3664 93.7888 15.3384 93.8188Z"
        fill="black" />
    <path
        d="M15.2476 93.8038C15.2366 93.8218 15.2206 93.8568 15.2056 93.8938C15.1936 93.8198 15.2116 93.6448 15.2476 93.8038Z"
        fill="black" />
    <path d="M16.6324 93.0948C16.4564 93.1638 16.8584 92.9928 16.6324 93.0948V93.0948Z"
        fill="black" />
    <path
        d="M15.2236 93.9187C15.2246 93.9167 15.2256 93.9147 15.2276 93.9117C15.2256 93.9157 15.2236 93.9167 15.2236 93.9187Z"
        fill="black" />
    <path
        d="M15.1754 93.9778C15.1814 93.9718 15.1874 93.9668 15.1944 93.9608C15.1794 93.9838 15.1734 93.9888 15.1754 93.9778Z"
        fill="black" />
    <path
        d="M15.2236 93.9188C15.2166 93.9288 15.2106 93.9328 15.2036 93.9448C15.1986 93.9528 15.1975 93.9528 15.1945 93.9588C15.1885 93.9648 15.1806 93.9708 15.1746 93.9768C15.1776 93.9608 15.1906 93.9288 15.2046 93.8938C15.2086 93.9158 15.2146 93.9278 15.2236 93.9188Z"
        fill="black" />
    <path
        d="M22.4024 99.9338C22.4024 99.9338 31.0214 104.153 31.7134 111.07C32.4024 117.988 24.8184 125.024 17.7204 124.732C9.38341 124.387 6.84141 118.484 8.76041 117.236C10.6794 115.99 13.5924 116.989 13.5924 116.989C13.5924 116.989 6.4204 115.592 6.2634 110.08C6.2634 110.08 2.30242 112.641 1.39642 108.895C0.293416 104.336 17.9544 95.3578 21.6794 94.8328C25.4044 94.3108 26.9154 98.6078 22.4024 99.9338Z"
        fill="white" />
    <path
        d="M23.0795 98.7708C25.5375 99.9788 27.8724 101.794 29.6734 103.842C31.1534 105.525 32.3834 107.512 32.8564 109.728C33.3994 112.278 32.9444 114.849 31.8224 117.179C29.5224 121.952 24.4684 125.536 19.1924 126.036C15.0414 126.43 9.72444 124.878 7.54144 121.029C6.78144 119.687 6.36845 117.734 7.56245 116.497C9.08945 114.912 12.0194 115.039 13.9504 115.691C15.5994 116.246 14.9334 118.623 13.2344 118.286C9.15845 117.481 5.09944 114.513 4.91844 110.079C5.59344 110.467 6.26845 110.853 6.94345 111.241C6.00045 111.845 4.80044 112.273 3.67544 112.279C1.63344 112.292 0.0964462 110.577 0.00344623 108.578C-0.0555538 107.318 0.65244 106.175 1.40344 105.225C2.29644 104.098 3.39444 103.156 4.52644 102.277C7.43244 100.018 10.6374 98.1438 13.9234 96.4928C15.3824 95.7618 16.8654 95.0778 18.3794 94.4708C19.3104 94.0958 20.2754 93.7098 21.2694 93.5428C23.3484 93.1938 25.7694 94.0208 26.4014 96.2328C27.1194 98.7498 24.9125 100.567 22.7585 101.231C21.0995 101.744 20.3894 99.1448 22.0424 98.6338C22.4484 98.5088 22.8114 98.3568 23.1704 98.1278C23.3264 98.0288 23.2534 98.0888 23.4144 97.9378C23.4784 97.8758 23.5424 97.8138 23.6024 97.7488C23.7044 97.6388 23.5385 97.8728 23.6595 97.6738C23.7065 97.5928 23.8555 97.2118 23.7735 97.4778C23.8085 97.3658 23.8484 96.9898 23.8344 97.3098C23.8374 97.2488 23.8174 96.8848 23.8444 97.0728C23.8694 97.2798 23.6764 96.6348 23.8314 96.9768C23.7734 96.8488 23.7015 96.7268 23.6205 96.6128C23.7725 96.8288 23.5765 96.5898 23.5065 96.5168C23.4775 96.4878 23.2904 96.3478 23.4234 96.4428C23.5594 96.5408 23.3524 96.4018 23.3194 96.3868C23.2464 96.3508 23.1794 96.3078 23.1064 96.2748C22.9234 96.1848 23.3855 96.3458 23.0235 96.2488C22.9395 96.2268 22.5324 96.1328 22.7274 96.1598C22.5594 96.1368 22.3884 96.1348 22.2204 96.1378C22.1174 96.1398 22.0175 96.1518 21.9135 96.1548C21.6565 96.1648 22.0944 96.1228 21.9584 96.1458C21.8744 96.1608 21.7884 96.1758 21.7034 96.1948C20.7914 96.3898 19.9064 96.7398 19.0454 97.0888C18.9234 97.1378 18.8024 97.1878 18.6804 97.2368C18.4924 97.3158 18.8714 97.1558 18.6804 97.2368C18.6064 97.2688 18.5334 97.2998 18.4604 97.3318C18.1364 97.4718 17.8134 97.6138 17.4914 97.7618C16.8554 98.0518 16.2254 98.3528 15.5994 98.6628C12.7764 100.062 10.0184 101.631 7.44345 103.447C6.33645 104.227 5.46244 104.891 4.42244 105.902C4.20844 106.11 4.00145 106.323 3.80145 106.544C3.70845 106.648 3.61545 106.752 3.52745 106.858C3.45345 106.946 3.25144 107.217 3.42744 106.974C3.28344 107.171 3.14345 107.37 3.01845 107.581C2.96745 107.667 2.92044 107.753 2.87544 107.84C2.79344 107.998 2.74844 108.212 2.83044 107.917C2.80044 108.022 2.76044 108.13 2.72644 108.234C2.65944 108.447 2.71745 108.528 2.70445 108.251C2.70845 108.336 2.70845 108.463 2.69345 108.547C2.65845 108.759 2.59144 108.274 2.69244 108.537C2.76644 108.728 2.82245 108.983 2.87245 109.082C2.91545 109.166 2.96444 109.248 3.01744 109.327C3.14444 109.512 2.83345 109.146 3.09445 109.406C3.15645 109.467 3.17145 109.487 3.23245 109.515C3.12645 109.464 3.50045 109.589 3.59645 109.604C3.30045 109.557 3.67944 109.584 3.78544 109.585C3.85644 109.585 3.93244 109.574 4.00444 109.567C3.67144 109.6 4.02345 109.557 4.07945 109.542C4.36545 109.465 4.64245 109.381 4.91945 109.277C5.09645 109.21 4.69145 109.381 4.85245 109.303C4.91545 109.272 4.98144 109.244 5.04144 109.214C5.13644 109.166 5.22944 109.12 5.32144 109.068C5.40944 109.019 5.49944 108.97 5.58444 108.915C6.48144 108.34 7.56945 109.103 7.60945 110.078C7.69245 112.107 9.03045 113.537 10.8275 114.527C11.0365 114.642 11.2495 114.752 11.4655 114.855C11.5695 114.904 11.6734 114.951 11.7784 114.998C12.0424 115.118 11.5724 114.921 11.8584 115.033C12.2114 115.173 12.5645 115.304 12.9245 115.417C13.2605 115.521 13.6034 115.621 13.9494 115.69C13.7104 116.554 13.4714 117.42 13.2334 118.285C12.7124 118.11 12.1314 118.006 11.7314 117.975C11.2624 117.94 10.7764 117.932 10.3204 118.037C10.1324 118.079 9.94144 118.13 9.76744 118.21C9.70744 118.237 9.51644 118.387 9.43844 118.398C9.27244 118.421 9.65044 118.223 9.52644 118.335C9.29544 118.54 9.67344 118.13 9.55044 118.291C9.38244 118.516 9.54345 118.391 9.54445 118.273C9.54345 118.344 9.49845 118.483 9.47545 118.556C9.57245 118.258 9.51544 118.405 9.50044 118.619C9.47544 118.939 9.43245 118.455 9.49345 118.641C9.52945 118.759 9.54345 118.886 9.57745 119.004C9.61445 119.132 9.66144 119.258 9.70744 119.382C9.58544 119.056 9.76144 119.477 9.81544 119.579C9.94944 119.826 10.1045 120.061 10.2715 120.286C10.0875 120.043 10.4174 120.452 10.4604 120.5C10.5974 120.649 10.7385 120.794 10.8855 120.934C11.4375 121.454 11.9855 121.819 12.7865 122.222C14.5365 123.105 16.7934 123.496 18.8214 123.369C23.1344 123.1 27.2324 120.052 29.2414 116.314C30.1544 114.617 30.6594 112.511 30.3054 110.683C29.9574 108.889 29.0674 107.26 27.9184 105.917C26.1524 103.855 24.1705 102.297 21.7194 101.092C21.0665 100.771 20.8884 99.8458 21.2354 99.2498C21.6284 98.5878 22.4265 98.4488 23.0795 98.7708Z"
        fill="#CCCCCC" />
    <path
        d="M57.8963 102.908C57.8963 102.908 52.6263 113.654 50.7023 118.304C48.7753 122.953 48.5583 132.276 48.5583 132.276C48.5583 132.276 42.4493 127.863 34.7563 129.797C27.5793 131.601 24.0573 136.963 26.1243 143.721C27.8663 149.425 34.5563 153.056 44.9723 152.764C55.3933 152.473 58.1033 147.649 57.1683 140.733C56.2343 133.818 53.5093 124.994 61.4813 111.653C64.7473 106.197 66.4443 102.475 66.4443 102.475L57.8963 102.908Z"
        fill="#F2CB75" stroke="#B97C29" stroke-width="3" stroke-miterlimit="10" />
    <path
        d="M82.1445 96.8677C80.6455 100.231 79.0555 103.552 77.5755 106.923C76.8215 108.636 76.0955 110.364 75.4235 112.113C74.8475 113.618 74.0625 115.051 73.7065 116.585C73.2045 118.746 72.8765 121.266 74.0165 123.297C75.1375 125.292 77.4365 126.442 78.4185 128.511C79.0085 129.751 78.8445 130.968 77.8585 131.939C76.9595 132.825 76.3455 133.617 75.7245 134.743C74.2745 137.368 73.5855 139.932 73.3365 142.894C73.1105 145.568 73.0765 148.579 74.7515 150.913C76.4305 153.256 79.6265 154.434 82.3665 154.219C83.8565 154.103 85.5955 153.591 86.9495 152.935C93.3665 149.823 96.1965 142.294 95.6335 135.48C95.4335 133.059 94.7325 128.99 92.1655 127.693C90.3365 126.77 88.0065 126.673 86.0785 125.93C84.4435 125.3 83.3355 123.675 82.4215 122.207C81.0475 120.003 81.1405 116.723 82.1555 114.436C83.4875 111.443 84.4555 108.37 86.0475 105.477C89.1095 99.9037 90.6685 96.1227 90.6685 96.1227L82.1445 96.8677Z"
        fill="#F2CB75" stroke="#B97C29" stroke-width="3" stroke-miterlimit="10" />
    <path
        d="M30.0684 139.641C30.0684 139.641 29.4244 137.715 31.9104 135.663C36.2244 132.103 43.9234 132.952 48.4064 136.781C49.6244 137.821 50.9154 138.926 51.7464 140.314C52.6324 141.792 53.5664 144.317 52.4614 145.937"
        stroke="#B97C29" stroke-width="2" stroke-miterlimit="10" stroke-linecap="round"
        stroke-linejoin="round" />
    <path d="M77.8574 127.457C77.8574 127.457 79.9384 130.043 84.2984 132.891L77.8574 127.457Z"
        fill="#F1CF71" />
    <path d="M77.8574 127.457C77.8574 127.457 79.9384 130.043 84.2984 132.891" stroke="#B97C29"
        stroke-width="3" stroke-miterlimit="10" stroke-linecap="round" stroke-linejoin="round" />
    <path
        d="M90.4713 50.2817C91.1613 49.4247 91.7543 48.9277 92.4043 48.2307C93.8463 46.6747 95.4653 45.3117 96.9023 43.7357C99.2923 41.1217 101.513 38.3477 103.458 35.3977C105.481 32.3337 107.779 28.5807 107.528 24.8467C107.285 21.2427 106.317 17.6057 104.479 14.4887C102.516 11.1577 99.5513 9.10571 96.1093 7.47471C93.8043 6.38271 91.3023 5.39471 88.8843 4.56071C77.8713 0.766714 65.0423 1.40771 53.7343 5.04271C24.5373 14.4277 4.82326 47.7047 12.7543 77.5927C20.8353 108.053 38.7793 120.12 64.9273 121.387C91.0703 122.655 118.184 102.605 126.548 83.5107C128.537 78.9677 130.397 74.3237 131.459 69.4757C132.472 64.8337 133.018 59.3787 130.792 55.0177C129.963 53.3927 128.899 51.8647 127.683 50.5047C125.628 48.2057 122.719 46.7657 119.688 46.1877C116.348 45.5527 113.282 46.2247 110.029 46.9997C104.846 48.2357 100.457 50.6397 95.3953 52.0297C94.1523 52.3717 90.6233 53.6407 89.6373 52.3317C89.1823 51.7277 90.0303 50.8287 90.4713 50.2817Z"
        fill="#F2CB75" stroke="#B97C29" stroke-width="3" stroke-miterlimit="10" />
    <path d="M91.6393 48.9888C91.6393 48.9888 84.5143 57.5688 85.2983 62.9278L91.6393 48.9888Z"
        fill="#F1CF71" />
    <path d="M91.6393 48.9888C91.6393 48.9888 84.5143 57.5688 85.2983 62.9278" stroke="#B97C29"
        stroke-width="3" stroke-miterlimit="10" stroke-linecap="round" />
    <path d="M98.8513 20.3497C98.8513 20.3507 100.384 25.9737 105.513 28.7177" stroke="#B97C29"
        stroke-width="2" stroke-linecap="round" stroke-linejoin="round" />
    <path d="M94.6582 23.8628C94.6582 23.8628 97.8082 32.2078 103.4 34.5968" stroke="#B97C29"
        stroke-width="2" stroke-linecap="round" stroke-linejoin="round" />
    <path d="M91.1953 28.3538C91.1953 28.3538 93.7203 35.5238 100.147 38.8338" stroke="#B97C29"
        stroke-width="2" stroke-linecap="round" stroke-linejoin="round" />
    <path d="M88.2344 32.6328C88.2344 32.6328 91.9504 41.4198 96.8924 42.8218" stroke="#B97C29"
        stroke-width="2" stroke-linecap="round" stroke-linejoin="round" />
    <path d="M85.3342 37.1198C85.3342 37.1198 88.7252 45.6188 92.9672 47.1728" stroke="#B97C29"
        stroke-width="2" stroke-linecap="round" stroke-linejoin="round" />
    <path d="M83.7024 43.5778C83.7024 43.5778 85.2264 48.2778 89.4144 51.2928" stroke="#B97C29"
        stroke-width="2" stroke-linecap="round" stroke-linejoin="round" />
    <path d="M83.1023 51.5067C83.1023 51.5067 84.4863 54.6317 86.6933 56.2147" stroke="#B97C29"
        stroke-width="2" stroke-linecap="round" stroke-linejoin="round" />
    <path d="M102.443 18.2078C102.443 18.2078 104.311 21.6778 106.521 23.2618" stroke="#B97C29"
        stroke-width="2" stroke-linecap="round" stroke-linejoin="round" />
    <path d="M93.9375 53.0737C92.9785 54.1397 91.8905 56.7847 92.1575 59.1127" stroke="#B97C29"
        stroke-width="2" stroke-miterlimit="10" stroke-linecap="round" />
    <path d="M118.541 45.7527C117.843 47.0097 117.376 49.8357 118.157 52.0407" stroke="#B97C29"
        stroke-width="2" stroke-miterlimit="10" stroke-linecap="round" />
    <path d="M122.723 47.2007C121.366 49.6547 122.541 52.0377 122.14 51.0247" stroke="#B97C29"
        stroke-width="2" stroke-miterlimit="10" stroke-linecap="round" />
    <path d="M97.9383 52.4027C96.8503 54.6147 95.6553 58.2537 96.2493 60.8787" stroke="#B97C29"
        stroke-width="2" stroke-miterlimit="10" stroke-linecap="round" />
    <path
        d="M102.197 50.5557C101.316 51.9507 100.817 53.6087 100.51 55.2197C100.181 56.9457 100.081 58.7007 100.501 60.4107C100.582 60.7457 100.682 61.0797 100.868 61.3717"
        stroke="#B97C29" stroke-width="2" stroke-miterlimit="10" stroke-linecap="round" />
    <path
        d="M107.817 47.6357C106.456 47.9047 105.233 52.3717 104.901 54.0487C104.5 56.0877 104.611 58.9607 105.694 61.4087"
        stroke="#B97C29" stroke-width="2" stroke-miterlimit="10" stroke-linecap="round" />
    <path
        d="M110.721 47.5267C110.046 48.3457 109.426 50.4887 109.198 51.6057C108.712 54.0007 109.162 55.6997 109.696 57.0467"
        stroke="#B97C29" stroke-width="2" stroke-miterlimit="10" stroke-linecap="round" />
    <path d="M115.309 46.2207C113.999 46.3737 112.713 50.8047 114.033 53.6407" stroke="#B97C29"
        stroke-width="2" stroke-miterlimit="10" stroke-linecap="round" />
    <path
        d="M97.0283 81.4247C97.0283 81.4247 115.179 82.8977 119.851 90.1957C124.521 97.4947 111.846 108.096 111.846 108.096L104.097 104.27C104.097 104.27 110.515 97.4657 109.573 95.1337C108.633 92.8027 98.2033 91.8277 98.2033 91.8277L97.0283 81.4247Z"
        fill="#F2CB75" />
    <path d="M118.422 90.4867C118.517 90.5967 118.27 90.2677 118.422 90.4867V90.4867Z"
        fill="black" />
    <path
        d="M98.5684 83.1307C98.5844 83.1327 98.6004 83.1357 98.6154 83.1367C98.6164 83.1367 98.6164 83.1377 98.6174 83.1377C98.5994 83.1357 98.5954 83.1347 98.5684 83.1307Z"
        fill="black" />
    <path
        d="M112.527 106.933C112.231 106.787 111.936 106.641 111.641 106.496C111.394 106.718 111.144 106.934 110.894 107.143C111.439 107.074 111.983 107.003 112.527 106.933Z"
        fill="black" />
    <path d="M119.495 93.0017C119.516 93.0817 119.471 92.7317 119.495 93.0017V93.0017Z"
        fill="black" />
    <path
        d="M105.05 105.22C105.471 104.774 105.871 104.31 106.271 103.843C105.773 103.598 105.276 103.352 104.779 103.107C104.868 103.812 104.959 104.516 105.05 105.22Z"
        fill="black" />
    <path
        d="M119.486 94.6787C119.484 94.6947 119.484 94.7117 119.482 94.7287C119.487 94.6847 119.487 94.6757 119.486 94.6787Z"
        fill="black" />
    <path d="M119.133 91.6787C119.152 91.7107 119.109 91.6087 119.133 91.6787V91.6787Z"
        fill="black" />
    <path
        d="M108.321 95.5737C108.308 95.5537 108.304 95.5597 108.317 95.6127C108.319 95.5997 108.317 95.5867 108.32 95.5757C108.32 95.5747 108.321 95.5747 108.321 95.5737Z"
        fill="black" />
    <path d="M108.314 95.6677V95.6717L108.321 95.6777L108.314 95.6677Z" fill="black" />
    <path
        d="M108.322 95.6297C108.319 95.6207 108.319 95.6187 108.317 95.6117C108.317 95.6227 108.315 95.6327 108.315 95.6447C108.323 95.6527 108.332 95.6667 108.34 95.6797C108.335 95.6707 108.329 95.6577 108.322 95.6297Z"
        fill="black" />
    <path
        d="M108.341 95.6807C108.342 95.6827 108.343 95.6847 108.345 95.6877C108.354 95.6967 108.361 95.6837 108.363 95.6627C108.348 95.6257 108.333 95.5917 108.322 95.5737C108.322 95.5747 108.321 95.5747 108.321 95.5757C108.318 95.5867 108.32 95.5997 108.318 95.6127C108.32 95.6197 108.32 95.6217 108.323 95.6307C108.329 95.6577 108.335 95.6707 108.341 95.6807Z"
        fill="black" />
    <path
        d="M108.373 95.7267C108.37 95.7217 108.369 95.7217 108.365 95.7137C108.357 95.7007 108.351 95.6977 108.344 95.6877C108.343 95.6857 108.341 95.6838 108.34 95.6808C108.331 95.6678 108.322 95.6538 108.315 95.6458C108.315 95.6548 108.313 95.6618 108.313 95.6678C108.317 95.6728 108.317 95.6737 108.321 95.6777C108.338 95.6947 108.355 95.7107 108.373 95.7267Z"
        fill="black" />
    <path
        d="M122.113 92.4307C121.518 88.5337 117.955 86.0617 114.622 84.5387C110.883 82.8327 106.857 81.8197 102.824 81.0927C100.929 80.7507 99.0132 80.4537 97.0942 80.2467L97.3592 82.9857C97.7782 83.0337 98.1982 83.0827 98.6162 83.1357C98.6012 83.1347 98.5852 83.1317 98.5692 83.1297C98.5952 83.1337 98.5992 83.1347 98.6182 83.1367C98.6192 83.1367 98.6192 83.1367 98.6202 83.1367C98.6832 83.1447 98.8342 83.1657 98.6182 83.1367C98.6172 83.1367 98.6172 83.1357 98.6162 83.1357C98.6892 83.1457 98.7602 83.1557 98.8322 83.1657C98.9962 83.1877 99.1572 83.2117 99.3212 83.2347C99.7482 83.2977 100.175 83.3617 100.601 83.4307C104.326 84.0307 108.055 84.8487 111.592 86.1747C113.179 86.7697 114.853 87.5417 116.376 88.5977C116.81 88.8997 116.767 88.8627 117.141 89.1807C117.471 89.4617 117.786 89.7607 118.078 90.0807C118.193 90.2077 118.302 90.3377 118.411 90.4697C118.417 90.4787 118.419 90.4797 118.423 90.4847C118.271 90.2657 118.518 90.5947 118.423 90.4847C118.429 90.4937 118.433 90.4987 118.442 90.5087C118.483 90.5697 118.527 90.6287 118.568 90.6897C118.688 90.8647 118.799 91.0447 118.904 91.2317C118.969 91.3497 119.032 91.4707 119.092 91.5937C119.117 91.6457 119.128 91.6657 119.135 91.6767C119.111 91.6067 119.154 91.7087 119.135 91.6767C119.14 91.6947 119.149 91.7177 119.165 91.7607C119.31 92.1507 119.413 92.5457 119.487 92.9517C119.492 92.9777 119.495 92.9897 119.497 92.9997C119.473 92.7287 119.518 93.0797 119.497 92.9997C119.499 93.0167 119.499 93.0227 119.501 93.0417C119.511 93.1277 119.519 93.2137 119.524 93.2997C119.541 93.5577 119.545 93.8167 119.534 94.0747C119.527 94.2767 119.511 94.4767 119.488 94.6767C119.489 94.6737 119.489 94.6827 119.484 94.7267C119.486 94.7097 119.486 94.6927 119.488 94.6767C119.481 94.6917 119.417 95.0877 119.404 95.1547C119.315 95.5977 119.192 96.0357 119.048 96.4647C118.77 97.2947 118.449 97.9757 117.962 98.8437C117.491 99.6807 116.963 100.485 116.398 101.26C115.127 103.004 113.422 104.9 111.643 106.495C111.938 106.64 112.233 106.785 112.529 106.932C111.985 107.002 111.441 107.073 110.896 107.143C111.146 106.934 111.396 106.717 111.643 106.496C109.853 105.611 108.063 104.727 106.273 103.843C105.874 104.31 105.473 104.774 105.052 105.22C104.961 104.516 104.87 103.812 104.781 103.107C105.278 103.352 105.775 103.598 106.273 103.843C106.885 103.126 107.485 102.397 108.057 101.65C109.3 100.026 110.917 97.9647 111.012 95.8257C111.104 93.7157 109.033 92.8007 107.368 92.1557C105.305 91.3577 103.122 90.8557 100.963 90.3997C99.9852 90.1927 99.0042 90.0057 98.0212 89.8317L98.2872 92.5897C100.626 93.0157 102.955 93.5457 105.214 94.2547C105.66 94.3947 106.104 94.5437 106.541 94.7097C106.651 94.7517 106.763 94.7947 106.872 94.8397C106.904 94.8527 106.92 94.8587 106.937 94.8647C106.712 94.7627 107.115 94.9317 106.937 94.8647C106.95 94.8707 106.954 94.8727 106.968 94.8787C107.159 94.9657 107.351 95.0537 107.538 95.1497C107.703 95.2357 107.867 95.3267 108.025 95.4277C108.121 95.4897 108.342 95.7057 108.232 95.5877C108.203 95.5587 108.174 95.5287 108.149 95.5017C108.188 95.5417 108.213 95.5677 108.232 95.5877C108.259 95.6177 108.287 95.6437 108.315 95.6727C108.315 95.6717 108.315 95.6707 108.315 95.6687C108.286 95.6307 108.291 95.6187 108.317 95.6467C108.317 95.6347 108.319 95.6247 108.319 95.6137C108.306 95.5607 108.31 95.5547 108.323 95.5747C108.358 95.4147 108.376 95.5897 108.364 95.6637C108.38 95.6987 108.391 95.7307 108.394 95.7467C108.411 95.7617 108.426 95.7787 108.443 95.7927C108.421 95.7727 108.412 95.7637 108.394 95.7477C108.395 95.7597 108.389 95.7537 108.375 95.7307C108.355 95.7127 108.332 95.6917 108.322 95.6787C108.318 95.6767 108.318 95.6757 108.314 95.6727C108.314 95.7257 108.316 95.7767 108.318 95.8207C108.412 95.5537 108.318 96.1117 108.318 95.8257C108.318 95.8237 108.318 95.8217 108.318 95.8207C108.316 95.8227 108.316 95.8237 108.314 95.8267C108.293 95.8867 108.286 95.9557 108.269 96.0167C108.221 96.2037 108.157 96.3827 108.087 96.5637C108.115 96.4957 108.129 96.4647 108.067 96.6227C108.075 96.6037 108.08 96.5837 108.087 96.5637C108.063 96.6237 108.027 96.7107 108.019 96.7287C107.956 96.8587 107.895 96.9877 107.828 97.1157C107.331 98.0767 106.713 98.9737 106.071 99.8397C105.279 100.905 104.193 102.207 103.147 103.317C102.59 103.91 102.615 105.036 103.419 105.432C106.002 106.707 108.585 107.984 111.166 109.26C111.749 109.547 112.31 109.458 112.798 109.049C114.65 107.496 116.337 105.689 117.828 103.793C120.326 100.617 122.755 96.6447 122.113 92.4307Z"
        fill="#B97C29" />
    <path
        d="M108.087 96.5637C108.08 96.5837 108.075 96.6037 108.067 96.6227C108.129 96.4647 108.115 96.4947 108.087 96.5637Z"
        fill="black" />
    <path
        d="M108.318 95.8207C108.318 95.8217 108.318 95.8237 108.318 95.8257C108.318 96.1117 108.411 95.5537 108.318 95.8207Z"
        fill="black" />
    <path
        d="M108.374 95.7297C108.38 95.7347 108.387 95.7407 108.393 95.7467C108.393 95.7457 108.393 95.7467 108.393 95.7457C108.387 95.7397 108.38 95.7327 108.373 95.7267C108.373 95.7277 108.374 95.7287 108.374 95.7297Z"
        fill="black" />
    <path
        d="M108.231 95.5867C108.212 95.5667 108.187 95.5407 108.148 95.5007C108.173 95.5287 108.201 95.5577 108.231 95.5867Z"
        fill="black" />
    <path
        d="M108.321 95.5736C108.332 95.5916 108.347 95.6257 108.362 95.6627C108.374 95.5877 108.357 95.4126 108.321 95.5736Z"
        fill="black" />
    <path d="M106.935 94.8647C107.112 94.9317 106.71 94.7627 106.935 94.8647V94.8647Z"
        fill="black" />
    <path
        d="M108.345 95.6877C108.343 95.6847 108.342 95.6827 108.341 95.6807C108.342 95.6837 108.344 95.6857 108.345 95.6877Z"
        fill="black" />
    <path
        d="M108.393 95.7458C108.387 95.7398 108.38 95.7338 108.374 95.7288C108.388 95.7518 108.394 95.7578 108.393 95.7458Z"
        fill="black" />
    <path
        d="M108.345 95.6877C108.352 95.6987 108.358 95.7017 108.366 95.7137C108.37 95.7217 108.371 95.7217 108.374 95.7267C108.381 95.7327 108.388 95.7397 108.394 95.7457C108.391 95.7297 108.379 95.6977 108.364 95.6627C108.36 95.6837 108.354 95.6967 108.345 95.6877Z"
        fill="black" />
    <path
        d="M101.166 101.702C101.166 101.702 92.5475 105.921 91.8555 112.839C91.1665 119.757 98.7514 126.793 105.848 126.499C114.184 126.155 116.726 120.253 114.808 119.005C112.889 117.758 109.977 118.758 109.977 118.758C109.977 118.758 117.147 117.359 117.305 111.848C117.305 111.848 121.267 114.409 122.172 110.663C123.275 106.104 105.614 97.1268 101.888 96.6018C98.1644 96.0788 96.6524 100.376 101.166 101.702Z"
        fill="white" />
    <path
        d="M100.487 100.54C98.0313 101.746 95.6943 103.562 93.8943 105.61C92.4143 107.294 91.1833 109.28 90.7123 111.496C90.1693 114.046 90.6233 116.618 91.7453 118.948C94.0453 123.721 99.0993 127.303 104.375 127.804C108.525 128.197 113.844 126.645 116.025 122.797C116.787 121.455 117.199 119.502 116.005 118.265C114.477 116.68 111.547 116.808 109.617 117.459C107.968 118.014 108.633 120.39 110.333 120.055C114.408 119.249 118.467 116.281 118.648 111.847C117.973 112.234 117.297 112.622 116.623 113.01C117.566 113.614 118.766 114.042 119.891 114.048C121.934 114.059 123.47 112.346 123.563 110.347C123.623 109.086 122.915 107.943 122.164 106.993C121.271 105.867 120.172 104.924 119.041 104.046C116.134 101.786 112.929 99.9117 109.642 98.2607C108.184 97.5297 106.701 96.8457 105.187 96.2387C104.256 95.8637 103.292 95.4777 102.298 95.3107C100.217 94.9617 97.7973 95.7897 97.1663 97.9997C96.4463 100.518 98.6553 102.334 100.808 102.999C102.466 103.512 103.177 100.913 101.523 100.402C101.117 100.277 100.754 100.126 100.396 99.8967C100.24 99.7967 100.313 99.8577 100.153 99.7057C100.087 99.6437 100.025 99.5817 99.9643 99.5157C99.8643 99.4077 100.03 99.6417 99.9093 99.4417C99.8613 99.3617 99.7133 98.9797 99.7933 99.2457C99.7593 99.1347 99.7203 98.7577 99.7333 99.0767C99.7313 99.0177 99.7503 98.6527 99.7243 98.8407C99.6983 99.0477 99.8923 98.4027 99.7353 98.7457C99.7933 98.6177 99.8663 98.4947 99.9483 98.3817C99.7963 98.5967 99.9923 98.3577 100.061 98.2857C100.089 98.2557 100.276 98.1157 100.144 98.2107C100.007 98.3087 100.216 98.1707 100.249 98.1547C100.32 98.1197 100.389 98.0767 100.46 98.0417C100.645 97.9537 100.181 98.1147 100.544 98.0177C100.628 97.9947 101.035 97.9007 100.841 97.9287C101.008 97.9047 101.18 97.9037 101.347 97.9057C101.45 97.9077 101.55 97.9187 101.653 97.9227C101.912 97.9327 101.473 97.8907 101.609 97.9127C101.694 97.9287 101.779 97.9437 101.865 97.9627C102.776 98.1587 103.66 98.5087 104.522 98.8557C104.644 98.9057 104.766 98.9567 104.888 99.0057C105.076 99.0837 104.696 98.9247 104.888 99.0057C104.96 99.0367 105.034 99.0687 105.106 99.0997C105.431 99.2397 105.754 99.3827 106.075 99.5297C106.712 99.8197 107.342 100.121 107.968 100.431C110.79 101.83 113.549 103.398 116.125 105.215C117.23 105.994 118.106 106.659 119.145 107.671C119.358 107.878 119.567 108.091 119.765 108.311C119.859 108.415 119.951 108.521 120.039 108.626C120.114 108.713 120.317 108.986 120.141 108.743C120.284 108.939 120.425 109.139 120.55 109.349C120.6 109.435 120.648 109.521 120.693 109.608C120.774 109.767 120.819 109.98 120.738 109.685C120.767 109.79 120.808 109.898 120.842 110.001C120.909 110.215 120.85 110.297 120.864 110.019C120.861 110.105 120.861 110.231 120.875 110.315C120.911 110.527 120.977 110.042 120.875 110.305C120.802 110.495 120.746 110.751 120.696 110.849C120.652 110.934 120.605 111.017 120.551 111.095C120.423 111.28 120.734 110.915 120.473 111.175C120.413 111.235 120.396 111.254 120.335 111.284C120.441 111.233 120.067 111.357 119.972 111.373C120.269 111.325 119.89 111.352 119.784 111.354C119.711 111.354 119.635 111.341 119.564 111.334C119.897 111.368 119.544 111.325 119.489 111.31C119.204 111.233 118.925 111.15 118.649 111.045C118.472 110.978 118.877 111.149 118.716 111.071C118.652 111.041 118.587 111.013 118.526 110.981C118.432 110.933 118.338 110.888 118.247 110.837C118.159 110.787 118.069 110.738 117.984 110.684C117.087 110.109 116 110.872 115.959 111.846C115.875 113.875 114.537 115.304 112.742 116.295C112.532 116.411 112.318 116.521 112.102 116.623C111.999 116.673 111.896 116.719 111.789 116.766C111.526 116.886 111.996 116.688 111.711 116.801C111.358 116.941 111.005 117.072 110.644 117.184C110.307 117.29 109.966 117.389 109.62 117.458C109.858 118.323 110.097 119.188 110.336 120.054C110.856 119.878 111.438 119.774 111.837 119.744C112.306 119.708 112.792 119.7 113.248 119.805C113.435 119.847 113.628 119.897 113.801 119.979C113.861 120.006 114.051 120.155 114.13 120.166C114.295 120.191 113.917 119.992 114.043 120.104C114.273 120.309 113.896 119.898 114.018 120.061C114.185 120.286 114.026 120.16 114.024 120.042C114.026 120.113 114.071 120.252 114.092 120.325C113.997 120.028 114.052 120.173 114.068 120.387C114.092 120.707 114.135 120.224 114.076 120.411C114.04 120.527 114.026 120.654 113.991 120.774C113.955 120.902 113.908 121.027 113.861 121.151C113.983 120.826 113.808 121.246 113.752 121.349C113.618 121.595 113.465 121.831 113.297 122.056C113.48 121.811 113.151 122.221 113.109 122.268C112.972 122.419 112.831 122.564 112.682 122.704C112.132 123.223 111.583 123.588 110.783 123.992C109.033 124.874 106.776 125.266 104.747 125.139C100.434 124.869 96.3373 121.82 94.3283 118.083C93.4143 116.385 92.9093 114.279 93.2643 112.451C93.6123 110.658 94.5023 109.029 95.6503 107.686C97.4153 105.623 99.3993 104.065 101.849 102.86C102.501 102.54 102.68 101.615 102.332 101.019C101.939 100.358 101.143 100.218 100.487 100.54Z"
        fill="#CCCCCC" />
    <path d="M34.9414 48.8358L35.3004 45.0148" stroke="#A36A26" stroke-width="2"
        stroke-linecap="round" stroke-linejoin="round" />
    <path d="M39.1794 49.8147L40.7484 47.7577" stroke="#A36A26" stroke-width="2"
        stroke-linecap="round" stroke-linejoin="round" />
    <path d="M30.5954 49.3297L29.6594 46.9387" stroke="#A36A26" stroke-width="2"
        stroke-linecap="round" stroke-linejoin="round" />
    <path d="M68.7373 48.8367L69.0973 45.0157" stroke="#A36A26" stroke-width="2"
        stroke-linecap="round" stroke-linejoin="round" />
    <path d="M72.9753 49.8157L74.5453 47.7587" stroke="#A36A26" stroke-width="2"
        stroke-linecap="round" stroke-linejoin="round" />
    <path d="M64.3923 49.3307L63.4563 46.9397" stroke="#A36A26" stroke-width="2"
        stroke-linecap="round" stroke-linejoin="round" />
    <path
        d="M62.5323 85.8947C62.1533 85.2767 60.6883 83.0337 60.1933 82.5027C58.8803 81.0967 57.2293 80.5187 55.3883 81.0257C55.2903 81.0527 55.1593 81.0937 55.0803 81.1227C53.4553 81.6757 52.4463 83.0337 52.1483 84.6937C52.0023 85.5077 51.9913 86.5127 52.0933 87.3317C52.1773 88.0127 52.3433 88.9147 52.5513 89.6447"
        fill="#F49A56" />
    <path
        d="M62.5323 85.8947C62.1533 85.2767 60.6883 83.0337 60.1933 82.5027C58.8803 81.0967 57.2293 80.5187 55.3883 81.0257C55.2903 81.0527 55.1593 81.0937 55.0803 81.1227C53.4553 81.6757 52.4463 83.0337 52.1483 84.6937C52.0023 85.5077 51.9913 86.5127 52.0933 87.3317C52.1773 88.0127 52.3433 88.9147 52.5513 89.6447"
        stroke="#A36A26" stroke-width="2" stroke-miterlimit="10" />
    <path
        d="M57.8812 87.5157C57.7112 87.1147 57.5562 86.7077 57.4092 86.2967C57.2792 85.9347 57.1542 85.5677 57.0502 85.1957C56.9972 85.0147 56.9492 84.8297 56.9052 84.6467C56.8942 84.6077 56.8882 84.5707 56.8812 84.5337C56.8572 84.4187 56.9022 84.6577 56.8772 84.5117C56.8622 84.4267 56.8492 84.3407 56.8382 84.2537C56.8002 83.9617 56.5532 83.6967 56.2392 83.7327C55.9532 83.7657 55.6812 84.0207 55.7182 84.3297C55.8162 85.1157 56.0692 85.8827 56.3332 86.6247C56.4812 87.0447 56.6432 87.4667 56.8172 87.8777C56.9332 88.1487 57.2332 88.3447 57.5312 88.2287C57.7992 88.1257 58.0062 87.8067 57.8812 87.5157Z"
        fill="#A36A26" />
    <path
        d="M35.4553 82.6527C38.0853 85.9357 43.0263 89.3867 50.3133 89.3867C57.7453 89.3867 62.5103 85.7587 65.0933 82.4387"
        stroke="#A36A26" stroke-width="2" stroke-miterlimit="10" stroke-linecap="round"
        stroke-linejoin="round" />
    <path
        d="M70.7235 65.6947C70.7235 65.6947 67.3455 63.9107 67.4505 62.2687C67.5555 60.6227 71.1775 59.3687 71.1775 59.3687C70.9925 54.5007 68.4355 51.3817 64.7635 49.9597C66.0905 49.2987 67.5235 49.0017 68.9885 49.1557C74.3035 49.7147 77.9985 55.9987 77.2415 63.1937C76.4855 70.3867 71.5635 75.7667 66.2495 75.2087C64.7855 75.0547 63.4405 74.4647 62.2825 73.5397C66.1705 72.9137 69.5255 70.4167 70.7235 65.6947Z"
        fill="white" stroke="#A36A26" stroke-width="2" stroke-linecap="round"
        stroke-linejoin="round" />
    <path
        d="M57.9954 61.1677C58.5444 55.9577 61.2754 51.6997 64.7624 49.9587C68.4344 51.3807 70.9914 54.4997 71.1764 59.3677C71.1764 59.3677 67.5134 60.6097 67.4494 62.2677C67.3864 63.9227 70.7224 65.6937 70.7224 65.6937C69.5244 70.4167 66.1694 72.9137 62.2804 73.5387C59.2354 71.1147 57.4474 66.3797 57.9954 61.1677Z"
        fill="#A36A26" stroke="#A36A26" stroke-width="2" stroke-linecap="square"
        stroke-linejoin="round" />
    <path
        d="M36.9803 65.6947C36.9803 65.6947 33.6023 63.9107 33.7083 62.2687C33.8133 60.6227 37.4343 59.3687 37.4343 59.3687C37.2503 54.5007 34.6933 51.3817 31.0203 49.9597C32.3483 49.2987 33.7813 49.0017 35.2463 49.1557C40.5613 49.7147 44.2563 55.9987 43.4993 63.1937C42.7423 70.3867 37.8203 75.7667 32.5073 75.2087C31.0423 75.0547 29.6983 74.4647 28.5403 73.5397C32.4283 72.9137 35.7823 70.4167 36.9803 65.6947Z"
        fill="white" stroke="#A36A26" stroke-width="2" stroke-linecap="square"
        stroke-linejoin="round" />
    <path
        d="M24.2533 61.1677C24.8023 55.9577 27.5333 51.6997 31.0193 49.9587C34.6923 51.3807 37.2493 54.4997 37.4333 59.3677C37.4333 59.3677 33.7703 60.6097 33.7073 62.2677C33.6443 63.9227 36.9793 65.6937 36.9793 65.6937C35.7823 70.4167 32.4273 72.9137 28.5383 73.5387C25.4923 71.1147 23.7053 66.3797 24.2533 61.1677Z"
        fill="#A36A26" stroke="#A36A26" stroke-width="2" stroke-linecap="square"
        stroke-linejoin="round" />
    <path
        d="M51.6043 73.0367C51.7013 72.2817 51.4843 71.5577 51.0523 70.9977C50.6203 70.4377 49.9753 70.0437 49.2193 69.9457C48.4643 69.8477 47.7393 70.0657 47.1803 70.4977C46.6193 70.9277 46.2253 71.5737 46.1283 72.3297C46.0293 73.0847 46.2483 73.8107 46.6783 74.3687C47.1113 74.9297 47.7553 75.3247 48.5113 75.4227"
        stroke="#A36A26" stroke-width="2" stroke-linecap="round" stroke-linejoin="bevel" />
    <path
        d="M63.5274 77.1047C63.0524 80.7897 65.6544 84.1637 69.3394 84.6417C73.0244 85.1167 76.4004 82.5137 76.8744 78.8307C77.3514 75.1427 74.7514 71.7687 71.0654 71.2917C67.3784 70.8187 64.0044 73.4197 63.5274 77.1047Z"
        fill="#F49A56" />
    <path
        d="M71.8134 77.1017C72.2436 77.1017 72.5924 76.7529 72.5924 76.3227C72.5924 75.8925 72.2436 75.5437 71.8134 75.5437C71.3832 75.5437 71.0344 75.8925 71.0344 76.3227C71.0344 76.7529 71.3832 77.1017 71.8134 77.1017Z"
        fill="#B97C29" />
    <path
        d="M70.3513 80.6537C70.7821 80.6537 71.1313 80.3045 71.1313 79.8737C71.1313 79.443 70.7821 79.0938 70.3513 79.0938C69.9205 79.0938 69.5713 79.443 69.5713 79.8737C69.5713 80.3045 69.9205 80.6537 70.3513 80.6537Z"
        fill="#B97C29" />
    <path
        d="M67.9465 78.2017C68.3767 78.2017 68.7255 77.8529 68.7255 77.4227C68.7255 76.9924 68.3767 76.6437 67.9465 76.6437C67.5162 76.6437 67.1675 76.9924 67.1675 77.4227C67.1675 77.8529 67.5162 78.2017 67.9465 78.2017Z"
        fill="#B97C29" />
    <path
        d="M24.1355 77.1047C23.6585 80.7897 26.2605 84.1637 29.9475 84.6417C33.6325 85.1167 37.0075 82.5137 37.4815 78.8307C37.9585 75.1427 35.3575 71.7687 31.6715 71.2917C27.9855 70.8187 24.6115 73.4197 24.1355 77.1047Z"
        fill="#F49A56" />
    <path
        d="M32.0664 77.4127C32.4966 77.4127 32.8454 77.064 32.8454 76.6337C32.8454 76.2035 32.4966 75.8547 32.0664 75.8547C31.6361 75.8547 31.2874 76.2035 31.2874 76.6337C31.2874 77.064 31.6361 77.4127 32.0664 77.4127Z"
        fill="#B97C29" />
    <path
        d="M30.8703 80.6527C31.3005 80.6527 31.6493 80.304 31.6493 79.8737C31.6493 79.4435 31.3005 79.0947 30.8703 79.0947C30.4401 79.0947 30.0913 79.4435 30.0913 79.8737C30.0913 80.304 30.4401 80.6527 30.8703 80.6527Z"
        fill="#B97C29" />
    <path
        d="M29.2184 77.2197C29.3304 77.6357 29.0834 78.0627 28.6704 78.1747C28.2524 78.2857 27.8234 78.0397 27.7134 77.6247C27.6004 77.2077 27.8484 76.7827 28.2624 76.6687C28.6804 76.5577 29.1074 76.8027 29.2184 77.2197Z"
        fill="#B97C29" />
    <path
        d="M63.2773 78.9857C63.2773 78.9857 63.7063 81.2817 65.1203 82.6247C66.5373 83.9667 68.3063 84.6927 69.7943 84.6397"
        stroke="#A36A26" stroke-width="2" stroke-miterlimit="10" stroke-linecap="round"
        stroke-linejoin="round" />
    <path
        d="M37.4494 78.9628C37.4494 78.9628 37.1104 81.2758 35.7484 82.6698C34.3874 84.0678 32.6474 84.8628 31.1584 84.8678"
        stroke="#A36A26" stroke-width="2" stroke-miterlimit="10" stroke-linecap="round"
        stroke-linejoin="round" />
    <path
        d="M64.2104 7.20967C63.3594 7.24367 62.4084 7.45568 61.9154 7.53468C60.3604 7.78568 58.8214 8.13868 57.3044 8.56268C51.9014 10.0747 46.7654 12.5217 42.1094 15.6437C30.3024 23.5587 23.6534 33.8357 20.4144 42.6137C19.2074 45.8827 18.2204 49.2357 17.5084 52.6477C16.9244 55.4477 16.5104 58.2987 16.3964 61.1737C16.3634 61.9747 16.2654 62.8037 16.4624 63.5927C16.5304 63.8647 16.6044 64.1127 16.8564 64.2577C17.1234 64.4097 17.5254 64.5017 17.7834 64.2827C18.1864 63.9397 18.3584 63.2727 18.5014 62.7887C18.7274 62.0237 18.8214 61.2307 19.0174 60.4587C20.3444 55.2307 22.2524 50.2007 24.4634 45.2677C27.5794 38.3127 31.7124 31.6847 37.3444 26.4847C49.2944 15.4527 53.0714 14.1867 58.9344 11.1397C61.4654 9.82467 66.0974 8.84768 65.7794 7.64668C65.6634 7.20868 64.8994 7.18167 64.2104 7.20967Z"
        fill="#EFE1B6" />
</svg>
