<svg width="92" height="92" viewBox="0 0 92 92" fill="none" xmlns="http://www.w3.org/2000/svg">
<path d="M74.75 74.75H17.25C15.725 74.75 14.2625 74.1442 13.1841 73.0659C12.1058 71.9875 11.5 70.525 11.5 69V28.75C11.5 27.225 12.1058 25.7625 13.1841 24.6841C14.2625 23.6058 15.725 23 17.25 23H28.75L34.5 14.375H57.5L63.25 23H74.75C76.275 23 77.7375 23.6058 78.8159 24.6841C79.8942 25.7625 80.5 27.225 80.5 28.75V69C80.5 70.525 79.8942 71.9875 78.8159 73.0659C77.7375 74.1442 76.275 74.75 74.75 74.75Z" stroke="white" stroke-width="4" stroke-linecap="round" stroke-linejoin="round"/>
<path d="M46 60.375C53.1452 60.375 58.9375 54.5827 58.9375 47.4375C58.9375 40.2923 53.1452 34.5 46 34.5C38.8548 34.5 33.0625 40.2923 33.0625 47.4375C33.0625 54.5827 38.8548 60.375 46 60.375Z" stroke="white" stroke-width="4" stroke-linecap="round" stroke-linejoin="round"/>
</svg>
