<svg width="24" height="24" viewBox="0 0 24 24" fill="none" xmlns="http://www.w3.org/2000/svg">
<path d="M2.40002 11.9999C2.40002 17.302 6.69791 21.5999 11.9999 21.5999C17.302 21.5999 21.5999 17.302 21.5999 11.9999C21.5999 6.69791 17.302 2.40002 11.9999 2.40002C6.69791 2.40002 2.40002 6.69791 2.40002 11.9999Z" fill="#E19706"/>
<path d="M2.40002 11.9999C2.40002 17.3023 6.69865 21.5999 11.9999 21.5999C17.3023 21.5999 21.5999 17.3023 21.5999 11.9999C21.5999 6.69759 17.3023 2.40002 11.9999 2.40002C6.69865 2.40002 2.40002 6.69759 2.40002 11.9999ZM4.58134 11.9999C4.58134 7.90291 7.90291 4.58134 11.9999 4.58134C16.097 4.58134 19.4185 7.90291 19.4185 11.9999C19.4185 16.097 16.097 19.4185 11.9999 19.4185C7.90291 19.4185 4.58134 16.097 4.58134 11.9999Z" fill="#FBD218"/>
<path d="M5.198 11.9999C5.198 15.7673 8.27104 18.8201 12.063 18.8201C15.855 18.8201 18.9291 15.7684 18.9291 11.9999C18.9291 8.23353 15.855 5.17969 12.063 5.17969C8.27104 5.17969 5.198 8.23353 5.198 11.9999Z" fill="#FBD218"/>
<path d="M4.71699 13.4838C5.41778 16.8459 8.45669 19.4208 12.0236 19.4208C16.111 19.4208 19.4241 16.1035 19.4241 12.0097C19.4241 11.1862 19.2886 10.3937 19.0411 9.65343L20.8416 8.26038C21.3291 9.41237 21.6 10.6796 21.6 12.0097C21.6 17.3067 17.3121 21.6 12.0225 21.6C7.14577 21.6 3.09034 17.9808 2.49194 13.2598C3.24394 13.3611 3.965 13.3825 4.71699 13.4838Z" fill="#EFB614"/>
<path d="M5.66195 13.6214H5.76009C10.255 13.6075 14.4469 12.4736 18.3296 10.2198L18.6336 10.0427C18.8202 10.6657 18.9269 11.2651 18.9269 11.9488C18.9269 15.744 15.8528 18.8202 12.0598 18.8202C8.83099 18.8202 6.12595 16.5909 5.39209 13.5862C5.48276 13.5979 5.57236 13.6096 5.66195 13.6214Z" fill="#EFB614"/>
<path d="M8.54966 15.4504C7.5975 14.4958 7.40687 12.9523 8.36001 11.9998C7.40687 11.0462 7.5975 9.50175 8.54966 8.55017C9.50281 7.5976 11.0475 7.40689 11.9997 8.35946C12.9528 7.40689 14.4965 7.5976 15.4497 8.55017C16.4028 9.50274 16.5925 11.0462 15.6403 11.9998C16.5925 12.9523 16.4018 14.4958 15.4497 15.4504C14.4955 16.4029 12.9528 16.5927 11.9997 15.6391C11.0475 16.5927 9.50281 16.4029 8.54966 15.4504Z" fill="#E19706"/>
<path d="M8.80132 15.1688C7.91893 14.2844 7.91893 12.8546 8.80132 11.9712C7.91893 11.0878 7.91893 9.65695 8.80132 8.77355C9.68569 7.89015 11.1174 7.95043 11.9998 8.83284C12.8832 7.95043 14.3129 7.89015 15.1982 8.77355C16.0806 9.65695 16.0806 11.0878 15.1982 11.9712C16.0806 12.8546 16.0806 14.2844 15.1982 15.1688C14.3139 16.0532 12.8841 16.0532 11.9998 15.1688C11.1174 16.0522 9.68471 16.0522 8.80132 15.1688Z" fill="#A7690F"/>
</svg>
