<svg width="24" height="24" viewBox="0 0 24 24" fill="none" xmlns="http://www.w3.org/2000/svg">
    <path fill-rule="evenodd" clip-rule="evenodd"
        d="M12.3566 1.61938L20.8226 6.5207C21.3349 6.81645 21.5109 7.48151 21.2123 7.9962L13.1194 21.9755C12.8224 22.4911 12.1589 22.6693 11.6459 22.3724L3.18013 17.4719C2.66849 17.1751 2.49301 16.5104 2.79127 15.9962L10.8833 2.01712C11.1803 1.50151 11.8442 1.32279 12.3566 1.61938Z"
        fill="white" />
    <path fill-rule="evenodd" clip-rule="evenodd"
        d="M20.8224 6.52063L12.3564 1.6193C11.8439 1.32272 11.18 1.50144 10.883 2.01705L5.27308 11.7081L19.3571 11.2004L21.2123 7.99559C21.5106 7.48144 21.3346 6.81638 20.8224 6.52063Z"
        fill="#EBEBEC" />
    <path fill-rule="evenodd" clip-rule="evenodd"
        d="M8.30037 12.9913C8.02663 11.9697 8.63289 10.9196 9.6545 10.6458C9.38076 9.62422 9.98704 8.57413 11.0087 8.30039C12.0303 8.02665 13.0804 8.63291 13.3541 9.65452C14.3757 9.38078 15.4258 9.98705 15.6996 11.0087C15.9733 12.0303 15.367 13.0804 14.3454 13.3541C14.6192 14.3757 14.0129 15.4258 12.9913 15.6996C11.9697 15.9733 10.9196 15.367 10.6458 14.3454C9.6242 14.6192 8.57411 14.0129 8.30037 12.9913Z"
        fill="#262734" />
    <path fill-rule="evenodd" clip-rule="evenodd"
        d="M11.534 18.7001C11.8674 18.6108 12.2101 18.8086 12.2995 19.142L12.2995 19.142C12.6329 19.0527 12.9756 19.2506 13.065 19.584C13.1543 19.9174 12.9564 20.2601 12.623 20.3494C12.623 20.3494 12.623 20.3495 12.623 20.3495C12.7123 20.6829 12.5144 21.0255 12.181 21.1149C11.8476 21.2042 11.5049 21.0064 11.4156 20.673C11.0822 20.7623 10.7396 20.5644 10.6502 20.231C10.5609 19.8976 10.7587 19.555 11.0921 19.4656C11.0027 19.1322 11.2006 18.7895 11.534 18.7001Z"
        fill="#262734" />
    <path fill-rule="evenodd" clip-rule="evenodd"
        d="M11.934 3.00017C12.2674 2.91083 12.6101 3.10869 12.6995 3.4421L12.6995 3.44209C13.033 3.35275 13.3757 3.55061 13.465 3.88403C13.5543 4.21745 13.3565 4.56016 13.0231 4.64949C13.023 4.6495 13.023 4.6495 13.023 4.6495C13.1123 4.98291 12.9145 5.32559 12.5811 5.41492C12.2477 5.50425 11.905 5.30642 11.8156 4.97303C11.4822 5.0623 11.1396 4.86444 11.0502 4.53106C10.9609 4.19768 11.1587 3.85501 11.4921 3.76562C11.4028 3.43221 11.6006 3.08951 11.934 3.00017Z"
        fill="#262734" />
</svg>
