<svg width="32" height="32" viewBox="0 0 32 32" fill="none" xmlns="http://www.w3.org/2000/svg">
    <path
        d="M7.0249 12.9999C7.02323 11.8144 7.25613 10.6402 7.71018 9.5451C8.16423 8.44997 8.83046 7.45548 9.67049 6.61894C10.5105 5.78239 11.5078 5.1203 12.6048 4.67081C13.7018 4.22131 14.8769 3.9933 16.0624 3.9999C21.0124 4.0374 24.9749 8.1499 24.9749 13.1124V13.9999C24.9749 18.4749 25.9124 21.0749 26.7374 22.4999C26.825 22.6517 26.8712 22.8238 26.8714 22.999C26.8715 23.1743 26.8256 23.3465 26.7383 23.4984C26.6509 23.6503 26.5252 23.7766 26.3737 23.8646C26.2221 23.9526 26.0501 23.9993 25.8749 23.9999H6.1249C5.94966 23.9993 5.77766 23.9526 5.62613 23.8646C5.4746 23.7766 5.34886 23.6503 5.26151 23.4984C5.17416 23.3465 5.12826 23.1743 5.12842 22.999C5.12857 22.8238 5.17478 22.6517 5.2624 22.4999C6.0874 21.0749 7.0249 18.4749 7.0249 13.9999V12.9999Z"
        stroke="white" stroke-width="1.5" stroke-linecap="round" stroke-linejoin="round" />
    <path
        d="M12 24V25C12 26.0609 12.4214 27.0783 13.1716 27.8284C13.9217 28.5786 14.9391 29 16 29C17.0609 29 18.0783 28.5786 18.8284 27.8284C19.5786 27.0783 20 26.0609 20 25V24"
        stroke="white" stroke-width="1.5" stroke-linecap="round" stroke-linejoin="round" />
</svg>
