<svg width="24" height="24" viewBox="0 0 24 24" fill="none" xmlns="http://www.w3.org/2000/svg">
    <defs>
        <linearGradient id="paint0_linear_1847_2751" x1="11.9999" y1="2" x2="11.9999" y2="21.9998"
            gradientUnits="userSpaceOnUse">
            <stop stop-color="#EBA724" />
            <stop offset="1" stop-color="#BD7D00" />
        </linearGradient>
        <linearGradient id="paint1_linear_1847_2751" x1="5.125" y1="5.125" x2="19.1875" y2="19.1875"
            gradientUnits="userSpaceOnUse">
            <stop stop-color="#FFCE1F" />
            <stop offset="1" stop-color="#EAB221" />
        </linearGradient>
        <linearGradient id="paint2_linear_1847_2751" x1="8.21815" y1="6.18417" x2="17.0653"
            y2="18.5918" gradientUnits="userSpaceOnUse">
            <stop stop-color="#FFCB12" />
            <stop offset="1" stop-color="#D68D00" />
        </linearGradient>
        <linearGradient id="paint3_linear_1847_2751" x1="8.77078" y1="8.77071" x2="15.0208"
            y2="15.5415" gradientUnits="userSpaceOnUse">
            <stop stop-color="#FFE600" />
            <stop offset="1" stop-color="#7C4C00" />
        </linearGradient>
        <linearGradient id="paint4_linear_1847_2751" x1="8.24994" y1="8.24988" x2="15.5416"
            y2="15.5415" gradientUnits="userSpaceOnUse">
            <stop stop-color="#9D5000" />
            <stop offset="1" stop-color="#FFCD1C" />
        </linearGradient>
    </defs>
    <path
        d="M2 11.9999C2 17.5229 6.47696 21.9998 11.9999 21.9998C17.5229 21.9998 21.9998 17.5229 21.9998 11.9999C21.9998 6.47696 17.5229 2 11.9999 2C6.47696 2 2 6.47696 2 11.9999Z"
        fill="url(#paint0_linear_1847_2751)" />
    <path
        d="M2 11.9999C2 17.5232 6.47774 21.9998 11.9999 21.9998C17.5232 21.9998 21.9998 17.5232 21.9998 11.9999C21.9998 6.47663 17.5232 2 11.9999 2C6.47774 2 2 6.47663 2 11.9999ZM4.2722 11.9999C4.2722 7.73217 7.73217 4.2722 11.9999 4.2722C16.2677 4.2722 19.7276 7.73217 19.7276 11.9999C19.7276 16.2677 16.2677 19.7276 11.9999 19.7276C7.73217 19.7276 4.2722 16.2677 4.2722 11.9999Z"
        fill="url(#paint1_linear_1847_2751)" />
    <path
        d="M4.91455 12.0001C4.91455 15.9129 8.08508 19.0834 11.9973 19.0834C15.9096 19.0834 19.0812 15.914 19.0812 12.0001C19.0812 8.08841 15.9096 4.91675 11.9973 4.91675C8.08508 4.91675 4.91455 8.08841 4.91455 12.0001Z"
        fill="url(#paint2_linear_1847_2751)" />
    <path
        d="M8.54758 15.448C7.59514 14.4898 7.59514 12.9407 8.54758 11.9837C7.59514 11.0266 7.59514 9.47643 8.54758 8.51936C9.50215 7.56229 11.0475 7.62759 11.9999 8.58359C12.9534 7.62759 14.4966 7.56229 15.4523 8.51936C16.4047 9.47643 16.4047 11.0266 15.4523 11.9837C16.4047 12.9407 16.4047 14.4898 15.4523 15.448C14.4977 16.4061 12.9545 16.4061 11.9999 15.448C11.0475 16.4051 9.50109 16.4051 8.54758 15.448Z"
        fill="url(#paint3_linear_1847_2751)" />
    <path
        d="M8.54758 15.448C7.59514 14.4898 7.59514 12.9407 8.54758 11.9837C7.59514 11.0266 7.59514 9.47643 8.54758 8.51936C9.50215 7.56229 11.0475 7.62759 11.9999 8.58359C12.9534 7.62759 14.4966 7.56229 15.4523 8.51936C16.4047 9.47643 16.4047 11.0266 15.4523 11.9837C16.4047 12.9407 16.4047 14.4898 15.4523 15.448C14.4977 16.4061 12.9545 16.4061 11.9999 15.448C11.0475 16.4051 9.50109 16.4051 8.54758 15.448Z"
        fill="#B86300" fill-opacity="0.65" />
    <path
        d="M8.54758 15.448C7.59514 14.4898 7.59514 12.9407 8.54758 11.9837C7.59514 11.0266 7.59514 9.47643 8.54758 8.51936C9.50215 7.56229 11.0475 7.62759 11.9999 8.58359C12.9534 7.62759 14.4966 7.56229 15.4523 8.51936C16.4047 9.47643 16.4047 11.0266 15.4523 11.9837C16.4047 12.9407 16.4047 14.4898 15.4523 15.448C14.4977 16.4061 12.9545 16.4061 11.9999 15.448C11.0475 16.4051 9.50109 16.4051 8.54758 15.448Z"
        stroke="url(#paint4_linear_1847_2751)" stroke-width="0.5" />
</svg>
