<svg width="68" height="68" viewBox="0 0 68 68" fill="none" xmlns="http://www.w3.org/2000/svg">
    <defs>
        <linearGradient id="paint0_linear_1804_3089" x1="34" y1="17.4867" x2="34" y2="62.7776"
            gradientUnits="userSpaceOnUse">
            <stop offset="0.0054" stop-color="#ADD3DC" />
            <stop offset="1" stop-color="#8BBFCB" />
        </linearGradient>
        <linearGradient id="paint1_linear_1804_3089" x1="34" y1="18.7271" x2="34" y2="44.6226"
            gradientUnits="userSpaceOnUse">
            <stop offset="0.0054" stop-color="#ABD1DA" />
            <stop offset="1" stop-color="#E2F3F8" />
        </linearGradient>
        <linearGradient id="paint2_linear_1804_3089" x1="33.9998" y1="20.7932" x2="33.9998"
            y2="5.46096" gradientUnits="userSpaceOnUse">
            <stop stop-color="#E2F4F8" />
            <stop offset="1" stop-color="#C6E7EE" />
        </linearGradient>
        <linearGradient id="paint3_linear_1804_3089" x1="34.0001" y1="57.7748" x2="34.0001"
            y2="33.8209" gradientUnits="userSpaceOnUse">
            <stop stop-color="#87AAB2" />
            <stop offset="1" stop-color="#8AB4BD" />
        </linearGradient>
    </defs>
    <path d="M53.8469 21.3367H14.1531L8 28.6072L33.9998 60L60 28.6072L53.8469 21.3367Z"
        fill="url(#paint0_linear_1804_3089)" />
    <path
        d="M53.8469 15.323H14.1531L8 22.5934V28.7507L23.2306 33.1043H44.7694L60 28.7507V22.5934L53.8469 15.323Z"
        fill="url(#paint1_linear_1804_3089)" />
    <path
        d="M42.2208 12H25.7788L14.1528 15.323V20.0231L25.7788 23.3461H42.2208L53.8467 20.0231V15.323L42.2208 12Z"
        fill="url(#paint2_linear_1804_3089)" />
    <path opacity="0.5" d="M8 28.7506L14.1531 20.0231L25.779 23.3461L23.2306 33.1043L8 28.7506Z"
        fill="white" />
    <path opacity="0.5"
        d="M42.2208 23.3461L44.7692 33.1043L59.9998 28.7506L53.8467 20.0231L42.2208 23.3461Z"
        fill="white" />
    <path opacity="0.26" d="M23.2306 33.1043L33.9998 60L8 28.7507L23.2306 33.1043Z" fill="white" />
    <path d="M23.2307 33.1042L33.9999 59.9999L44.7694 33.1042H23.2307Z"
        fill="url(#paint3_linear_1804_3089)" />
</svg>
