<svg width="68" height="68" viewBox="0 0 68 68" fill="none" xmlns="http://www.w3.org/2000/svg">
    <defs>
        <linearGradient id="paint0_linear_1804_3055" x1="23.8009" y1="30.9818" x2="33.2602"
            y2="35.0584" gradientUnits="userSpaceOnUse">
            <stop stop-color="#E0AD60" />
            <stop offset="0.878472" stop-color="#915B07" />
        </linearGradient>
    </defs>
    <path
        d="M60.7802 31.7298C59.7906 28.7835 58.7752 25.7862 56.9649 23.2999C54.253 19.5751 49.7734 17.4014 45.2963 16.5237C44.2515 14.6967 43.2131 12.7336 41.4394 11.6525C39.0179 10.1766 35.841 10.7509 33.2461 12.0098C30.6514 13.2689 28.3583 15.1423 25.7372 16.3404C24.4097 16.9472 23.0148 17.3726 21.6622 17.9154C19.7179 18.6963 17.87 19.7311 16.1624 20.9745C16.1624 20.9745 0.282799 28.3124 7.12329 41.6291C7.44148 42.5315 7.80798 43.4198 8.17355 44.2944L9.62773 47.7755C9.62773 47.7755 10.4763 53.007 15.7095 50.7814L28.9102 44.0236C27.9507 48.0788 27.1191 52.6788 29.4173 56.0236C30.2336 57.2116 31.5079 58.1673 32.9384 58.1668C34.0897 58.1665 35.1623 57.5632 36.1756 56.9771C40.781 54.3127 45.3863 51.6486 49.9916 48.9845C51.8567 47.9059 53.7283 46.8222 55.4306 45.484C56.8139 44.3962 58.074 43.1482 59.2558 41.8318C60.2043 40.775 61.128 39.6306 61.5434 38.2653C62.1981 36.1133 61.487 33.8324 60.7802 31.7298Z"
        fill="#E0AD60" />
    <path
        d="M44.2748 50.9071C45.8728 49.9962 48.6264 48.7822 51.1247 47.0426C54.8227 44.4676 62.5894 39.5576 60.4209 34.4831"
        stroke="#C28B36" stroke-width="0.5" stroke-linecap="round" stroke-linejoin="round" />
    <path opacity="0.5"
        d="M15.7097 50.7817C15.7097 50.7817 22.9042 18.5124 36.0995 13.8763C36.0995 13.8763 39.0455 12.7662 38.4891 15.8041L28.9104 44.0242L15.7097 50.7817Z"
        fill="url(#paint0_linear_1804_3055)" />
    <path
        d="M45.3257 50.6359C45.3257 50.6359 40.7707 50.2282 38.4034 50.4241C35.8432 50.6359 34.2612 51.0377 33.0214 51.8732C31.7816 52.7088 31.5378 53.8896 31.4319 54.9377C31.3563 55.6811 31.8866 56.3054 32.5018 56.5423C33.6491 56.9836 34.974 56.403 36.118 55.7395C38.7921 54.1883 41.1937 51.7998 44.0731 50.981L45.3257 50.6359Z"
        fill="#C9933E" />
    <path
        d="M41.0042 52.0277C40.8636 52.0968 39.6639 52.6806 39.382 52.8393C37.6291 53.8263 36.8441 54.2494 35.7219 54.9059C34.5562 55.5878 33.1821 55.9888 32.5322 55.7377C32.094 55.5684 31.6996 54.9878 31.529 54.5233C31.4848 54.6434 31.4544 54.7704 31.4406 54.9059C31.3622 55.6678 31.8267 56.2783 32.5264 56.5483C33.6934 56.9985 35.0431 56.4011 36.2088 55.7192C38.9337 54.1248 43.3963 51.6783 45.3257 50.636C45.8441 50.356 46.2318 49.4579 41.0042 52.0277Z"
        fill="#B37A23" />
    <path
        d="M37.8033 14.0011C38.4003 14.3659 38.3946 15.1714 38.2794 15.8036C38.2083 16.1964 38.0859 16.5736 37.9526 16.9491C37.7717 17.459 37.5915 17.9697 37.4125 18.4804C36.6977 20.5203 35.9993 22.5654 35.3091 24.6135C34.6167 26.6674 33.9319 28.7246 33.2469 30.7813C32.5646 32.8289 31.8819 34.8763 31.1898 36.9207C30.4967 38.9684 29.7943 41.0134 29.0741 43.0518C28.9824 43.3114 28.8903 43.5715 28.7977 43.8311C28.7185 44.0546 28.9363 44.1098 29.0149 43.8886C29.7528 41.8139 30.6004 39.7587 31.3085 37.6738C32.0183 35.5836 32.7177 33.4897 33.4158 31.3955C34.1103 29.3112 34.8036 27.2262 35.5043 25.1439C36.2091 23.0493 36.9217 20.9575 37.6508 18.8712C37.8324 18.3509 38.0153 17.8313 38.1993 17.312C38.3421 16.909 38.4907 16.5084 38.584 16.0908C38.7344 15.4155 38.8132 14.721 38.3735 14.1527C38.2661 14.0137 38.0384 13.7981 37.8704 13.7537C37.7025 13.7092 37.6082 13.8818 37.8033 14.0011Z"
        fill="#B88434" />
    <path
        d="M45.1224 16.6337C45.6828 17.6251 46.4026 18.5031 47.1101 19.3834C47.7846 20.2224 48.4529 21.076 48.9615 22.0366C49.2419 22.566 49.4662 23.1251 49.6071 23.7138C49.63 23.8095 49.7392 23.8618 49.8287 23.8329C49.925 23.8018 49.9729 23.6984 49.95 23.6025C49.6921 22.5254 49.1584 21.548 48.5377 20.6562C47.9021 19.7426 47.1692 18.9074 46.4957 18.0238C46.1097 17.5173 45.6515 17.0521 45.3359 16.4947C45.2214 16.293 45.008 16.4314 45.1224 16.6337Z"
        fill="#C28B36" />

</svg>
