<svg width="60" height="60" viewBox="0 0 60 60" fill="none" xmlns="http://www.w3.org/2000/svg">
    <defs>
        <linearGradient id="paint0_linear_1916_2379" x1="13.6036" y1="8.01689" x2="44.4068"
            y2="52.7359" gradientUnits="userSpaceOnUse">
            <stop stop-color="#F8CC66" />
            <stop offset="1" stop-color="#EBA73C" />
        </linearGradient>
    </defs>
    <path
        d="M58.4626 31.9081C58.0387 30.6698 58.0387 29.3308 58.4626 28.092L59.6814 24.5253C60.546 21.9969 59.6106 19.2197 57.3643 17.6621L54.1936 15.4651C53.0932 14.7022 52.2726 13.619 51.8581 12.3782L50.665 8.80388C49.8187 6.26993 47.3601 4.55427 44.5908 4.56333L40.6813 4.57391C39.3241 4.57844 38.0042 4.16451 36.909 3.39455L33.753 1.17935C32.6363 0.393284 31.3185 0 30.0001 0C28.6817 0 27.3639 0.393788 26.2462 1.17935L23.0912 3.39455C21.9961 4.16451 20.6761 4.57844 19.319 4.57391L15.4089 4.56333C12.6396 4.55427 10.1815 6.26993 9.3342 8.80388L8.13792 12.3782C7.72292 13.6195 6.90601 14.7027 5.80562 15.4651L2.63543 17.6621C0.389577 19.2197 -0.545755 21.9964 0.318315 24.5253L1.53765 28.092C1.96157 29.3303 1.96157 30.6693 1.53765 31.9081L0.318315 35.4754C-0.545755 38.0038 0.389577 40.781 2.63543 42.338L5.80562 44.5356C6.90653 45.299 7.72344 46.3776 8.13792 47.6189L9.3342 51.1968C10.1815 53.7302 12.6396 55.4464 15.4089 55.4378L19.319 55.4272C20.6761 55.4222 21.9961 55.8326 23.0912 56.6026L26.2462 58.8213C28.4816 60.3929 31.5192 60.3929 33.753 58.8213L36.909 56.6026C38.0042 55.8326 39.3241 55.4222 40.6813 55.4272L44.5908 55.4378C47.3601 55.4469 49.8187 53.7302 50.665 51.1968L51.8581 47.6189C52.2726 46.3776 53.0932 45.299 54.1936 44.5356L57.3643 42.338C59.6106 40.781 60.546 38.0038 59.6814 35.4754L58.4626 31.9081Z"
        fill="#F8DE89" />
    <path
        d="M54.7997 31.6625C54.4302 30.5828 54.4302 29.4171 54.7997 28.3374L55.8618 25.2294C56.6153 23.0263 55.8005 20.6066 53.8423 19.2495L51.0803 17.335C50.1214 16.6702 49.4072 15.7266 49.0446 14.6454L48.006 11.5308C47.2683 9.32319 45.1262 7.8276 42.7137 7.83616L39.3067 7.84572C38.1245 7.84975 36.9733 7.4892 36.0196 6.81794L33.2697 4.88777C32.2966 4.20292 31.148 3.85999 30 3.85999C28.8519 3.85999 27.7027 4.20292 26.7292 4.88777L23.9803 6.81794C23.0261 7.4892 21.8749 7.84925 20.6932 7.84572L17.2862 7.83616C14.8737 7.8281 12.7322 9.32319 11.9938 11.5308L10.9511 14.6454C10.5901 15.7271 9.87742 16.6702 8.91903 17.335L6.15652 19.2495C4.19991 20.6066 3.3851 23.0263 4.13809 25.2294L5.20023 28.3374C5.56913 29.4166 5.56913 30.5828 5.20023 31.6625L4.13809 34.7705C3.38458 36.9736 4.19939 39.3938 6.15652 40.7499L8.91903 42.6644C9.87742 43.3296 10.5895 44.2698 10.9511 45.3515L11.9938 48.468C12.7316 50.6762 14.8732 52.1713 17.2862 52.1632L20.6932 52.1542C21.8754 52.1501 23.0261 52.5072 23.9803 53.1779L26.7292 55.1116C28.6769 56.4818 31.3236 56.4818 33.2697 55.1116L36.0196 53.1779C36.9733 52.5072 38.125 52.1501 39.3067 52.1542L42.7137 52.1632C45.1262 52.1713 47.2677 50.6762 48.006 48.468L49.0446 45.3515C49.4067 44.2698 50.1214 43.3291 51.0803 42.6644L53.8423 40.7499C55.8 39.3938 56.6148 36.9736 55.8618 34.7705L54.7997 31.6625Z"
        fill="url(#paint0_linear_1916_2379)" />
    <path
        d="M30 57.0205C28.6193 57.0205 27.3014 56.6066 26.1879 55.8231L23.439 53.8894C22.6441 53.3309 21.7015 53.0358 20.7127 53.0358L17.2889 53.0449C14.452 53.0449 11.9819 51.3136 11.1209 48.7379L10.0782 45.6218C9.77531 44.7139 9.18896 43.9384 8.38253 43.3789L5.62055 41.4648C3.33068 39.8776 2.38486 37.0767 3.26779 34.4954L4.32941 31.3879C4.63542 30.4931 4.63543 29.5076 4.32994 28.6128L3.26726 25.5047C2.38485 22.924 3.33068 20.1231 5.62002 18.5354L8.38304 16.6208C9.1769 16.0704 9.77845 15.2732 10.0782 14.3764L11.1209 11.2608C11.9819 8.68557 14.4515 6.95481 17.2669 6.95481L20.6959 6.96438C21.6983 6.96438 22.6415 6.66777 23.439 6.1068L26.1885 4.17612C27.302 3.39307 28.6209 2.97864 30 2.97864C31.3792 2.97864 32.6975 3.39307 33.8116 4.17662L36.5605 6.1063C37.3585 6.66778 38.3012 6.96438 39.2878 6.96438L42.7111 6.95481C45.548 6.95481 48.0182 8.68557 48.8791 11.2613L49.9177 14.3764C50.2179 15.2717 50.8215 16.0689 51.6165 16.6203L54.3784 18.5349C56.6688 20.1226 57.6152 22.9234 56.7322 25.5047L55.6706 28.6123C55.3641 29.5071 55.3641 30.4926 55.6701 31.3869L56.7328 34.4954C57.6152 37.0767 56.6693 39.8776 54.3784 41.4643L51.6165 43.3789C50.809 43.9389 50.221 44.7144 49.9177 45.6213L48.8796 48.7374C48.0182 51.3141 45.5486 53.0449 42.7337 53.0449C42.7331 53.0449 42.7331 53.0449 42.7331 53.0449L39.3046 53.0358C38.2985 53.0358 37.3553 53.3309 36.5615 53.8894L33.8116 55.8231C32.6981 56.6066 31.3802 57.0205 30 57.0205ZM20.6902 51.2733C22.0929 51.2733 23.4097 51.6857 24.5216 52.4673L27.2705 54.401C28.068 54.962 29.0118 55.2581 30 55.2581C30.9878 55.2581 31.9315 54.962 32.7279 54.401L35.4784 52.4673C36.5887 51.6857 37.9066 51.2733 39.2878 51.2733L42.7169 51.2824C42.7169 51.2824 42.7169 51.2824 42.7174 51.2824C44.749 51.2824 46.5169 50.0431 47.1337 48.199L48.1717 45.083C48.5967 43.815 49.4167 42.7323 50.5438 41.9503L53.3063 40.0357C54.9459 38.9002 55.6229 36.895 54.991 35.0464L53.9283 31.9383C53.5013 30.689 53.5013 29.3127 53.9288 28.0629L54.991 24.9554C55.6229 23.1068 54.9459 21.1015 53.3063 19.965L50.5443 18.0504C49.434 17.2805 48.5914 16.1676 48.1722 14.9157L47.1337 11.8001C46.5169 9.95657 44.7489 8.7173 42.7342 8.7173L39.3104 8.72686C37.9103 8.72686 36.5924 8.31293 35.4784 7.52938L32.7295 5.5997C31.9315 5.03822 30.9883 4.74163 30.0005 4.74163C29.0128 4.74163 28.0691 5.03823 27.271 5.5992L24.5216 7.52988C23.4081 8.31293 22.0903 8.72686 20.7122 8.72686L17.2837 8.7173C15.2516 8.7173 13.4836 9.95607 12.8669 11.8006L11.8241 14.9157C11.406 16.1676 10.565 17.281 9.45568 18.0499L6.69264 19.9645C5.0541 21.101 4.37761 23.1063 5.00903 24.9543L6.0717 28.0624C6.49824 29.3112 6.49824 30.6875 6.0717 31.9373L5.00903 35.0453C4.37709 36.8939 5.0541 38.8991 6.69264 40.0352L9.45515 41.9498C10.5817 42.7313 11.4007 43.8145 11.8241 45.0825L12.8669 48.1985C13.4836 50.0431 15.2516 51.2824 17.2669 51.2824L20.6902 51.2733Z"
        fill="#D89442" />
    <path
        d="M29.2031 29.3605H39.9209V37.5657C39.9209 41.9628 35.7751 43.9998 30.1547 43.9998C24.5343 43.9998 20.3884 41.9633 20.3884 37.5657V24.1959C20.3884 19.7983 24.5343 17.7618 30.1547 17.7618C36.3892 17.7618 38.9997 20.182 39.6752 25.7011L33.1954 26.5864C32.7348 24.3727 32.028 23.2215 30.1547 23.2215C28.5271 23.2215 27.1454 24.0187 27.1454 25.5823V36.1778C27.1454 37.7419 28.5271 38.5386 30.1547 38.5386C31.7822 38.5386 33.1645 37.7419 33.1645 36.1778V34.8202H30.4308L29.2031 29.3605Z"
        fill="#D89440" />
    <path
        d="M29.2031 28.3534H39.9209V36.5586C39.9209 40.9557 35.7751 42.9927 30.1547 42.9927C24.5343 42.9927 20.3884 40.9562 20.3884 36.5586V23.1888C20.3884 18.7912 24.5343 16.7548 30.1547 16.7548C36.3892 16.7548 38.9997 19.1749 39.6752 24.694L33.1954 25.5793C32.7348 23.3656 32.028 22.2144 30.1547 22.2144C28.5271 22.2144 27.1454 23.0116 27.1454 24.5752V35.1707C27.1454 36.7348 28.5271 37.5315 30.1547 37.5315C31.7822 37.5315 33.1645 36.7348 33.1645 35.1707V33.8131H30.4308L29.2031 28.3534Z"
        fill="#F6DD93" />
</svg>
