<svg width="60" height="60" viewBox="0 0 60 60" fill="none" xmlns="http://www.w3.org/2000/svg">
    <defs>
        <linearGradient id="paint0_linear_1916_2369" x1="9.62455" y1="8.36121" x2="44.2065"
            y2="48.1267" gradientUnits="userSpaceOnUse">
            <stop stop-color="#DC9A6E" />
            <stop offset="1" stop-color="#B86728" />
        </linearGradient>
    </defs>
    <path
        d="M58.4624 31.9081C58.0384 30.6698 58.0384 29.3308 58.4624 28.092L59.6817 24.5253C60.5458 21.9969 59.6104 19.2197 57.3646 17.6621L54.1939 15.4651C53.0935 14.7022 52.273 13.619 51.858 12.3782L50.6654 8.80388C49.8186 6.26993 47.3605 4.55427 44.5912 4.56333L40.6812 4.57391C39.3246 4.57844 38.0041 4.16451 36.909 3.39455L33.7535 1.17935C32.6363 0.393284 31.3185 0 30.0001 0C28.6823 0 27.3639 0.393788 26.2468 1.17935L23.0918 3.39455C21.9967 4.16451 20.6762 4.57844 19.3191 4.57391L15.4091 4.56333C12.6398 4.55427 10.1817 6.26993 9.33494 8.80388L8.13814 12.3782C7.72314 13.6195 6.90624 14.7027 5.80585 15.4651L2.6357 17.6621C0.389345 19.2197 -0.545981 21.9964 0.318606 24.5253L1.53794 28.092C1.96185 29.3303 1.96185 30.6693 1.53794 31.9081L0.318606 35.4754C-0.545981 38.0038 0.389869 40.781 2.6357 42.338L5.80585 44.5356C6.90624 45.299 7.72314 46.3776 8.13814 47.6189L9.33494 51.1968C10.1822 53.7302 12.6398 55.4464 15.4091 55.4378L19.3191 55.4272C20.6757 55.4222 21.9962 55.8326 23.0918 56.6026L26.2468 58.8213C28.4821 60.3929 31.5192 60.3929 33.7535 58.8213L36.909 56.6026C38.0041 55.8326 39.3246 55.4222 40.6812 55.4272L44.5912 55.4378C47.3605 55.4469 49.8186 53.7302 50.6654 51.1968L51.858 47.6189C52.273 46.3776 53.0935 45.299 54.1939 44.5356L57.3646 42.338C59.6104 40.781 60.5458 38.0038 59.6817 35.4754L58.4624 31.9081Z"
        fill="#EEBE91" />
    <path
        d="M54.7992 31.6624C54.4303 30.5827 54.4303 29.4169 54.7992 28.3373L55.8618 25.2293C56.6148 23.0262 55.8 20.6065 53.8424 19.2494L51.0804 17.3348C50.1215 16.6701 49.4068 15.7264 49.0447 14.6453L48.0056 11.5307C47.2678 9.32307 45.1263 7.82747 42.7133 7.83603L39.3063 7.8456C38.1242 7.84963 36.9735 7.48907 36.0198 6.81782L33.2699 4.88765C32.2969 4.20279 31.1483 3.85986 29.9997 3.85986C28.8516 3.85986 27.703 4.20279 26.7294 4.88765L23.9801 6.81782C23.0259 7.48907 21.8752 7.84913 20.6931 7.8456L17.2866 7.83603C14.8736 7.82798 12.732 9.32307 11.9937 11.5307L10.951 14.6453C10.5894 15.7269 9.87785 16.6701 8.91894 17.3348L6.15646 19.2494C4.19935 20.6065 3.38454 23.0262 4.13751 25.2293L5.19965 28.3373C5.56906 29.4164 5.56906 30.5827 5.19965 31.6624L4.13751 34.7704C3.38401 36.9735 4.19935 39.3936 6.15646 40.7497L8.91894 42.6643C9.87785 43.3295 10.5894 44.2697 10.951 45.3513L11.9937 48.4679C12.732 50.6761 14.8736 52.1712 17.2866 52.1631L20.6931 52.154C21.8752 52.15 23.0259 52.507 23.9801 53.1778L26.7294 55.1115C28.6771 56.4817 31.3233 56.4817 33.2699 55.1115L36.0198 53.1778C36.9735 52.507 38.1247 52.15 39.3063 52.154L42.7133 52.1631C45.1258 52.1712 47.2673 50.6761 48.0056 48.4679L49.0447 45.3513C49.4063 44.2697 50.1215 43.329 51.0804 42.6643L53.8424 40.7497C55.7995 39.3936 56.6143 36.9735 55.8618 34.7704L54.7992 31.6624Z"
        fill="url(#paint0_linear_1916_2369)" />
    <path
        d="M29.9996 57.0204C28.6194 57.0204 27.301 56.6065 26.1876 55.8229L23.4382 53.8892C22.6438 53.3308 21.7011 53.0357 20.7118 53.0357L17.2881 53.0447C14.4512 53.0447 11.9811 51.314 11.1202 48.7377L10.0774 45.6211C9.77402 44.7132 9.18767 43.9382 8.38177 43.3788L5.61981 41.4647C3.32944 39.8774 2.38363 37.0766 3.26603 34.4953L4.32816 31.3878C4.63418 30.493 4.63418 29.5075 4.32816 28.6126L3.26603 25.5046C2.38363 22.9238 3.32944 20.123 5.61928 18.5352L8.38177 16.6207C9.17509 16.0708 9.77716 15.2736 10.0769 14.3763L11.1196 11.2612C11.9805 8.68594 14.4501 6.95517 17.2655 6.95517L20.694 6.96475C21.6964 6.96475 22.6391 6.66815 23.4371 6.10717L26.187 4.17649C27.3005 3.39344 28.6189 2.979 29.998 2.979C31.3777 2.979 32.6961 3.39344 33.8101 4.17699L36.5595 6.10666C37.3575 6.66814 38.3002 6.96475 39.2863 6.96475L42.7101 6.95517C45.5475 6.95517 48.0165 8.68594 48.878 11.2617L49.9176 14.3768C50.2168 15.2716 50.8204 16.0687 51.6164 16.6207L54.3783 18.5352C56.6687 20.123 57.6145 22.9238 56.7326 25.5046L55.67 28.6126C55.3645 29.507 55.3645 30.493 55.67 31.3878L56.7326 34.4953C57.6145 37.0771 56.6687 39.8774 54.3783 41.4647L51.6164 43.3793C50.8084 43.9397 50.2205 44.7152 49.9176 45.6211L48.8785 48.7372C48.0176 51.314 45.5475 53.0447 42.7326 53.0447H42.7321L39.3036 53.0357C38.2975 53.0357 37.3554 53.3308 36.561 53.8892L33.8111 55.8229C32.6982 56.6065 31.3798 57.0204 29.9996 57.0204ZM20.6903 51.2732C22.0931 51.2732 23.4104 51.6856 24.5218 52.4672L27.2712 54.4009C28.0682 54.9618 29.0124 55.2579 30.0001 55.2579C30.9878 55.2579 31.9316 54.9618 32.7285 54.4009L35.479 52.4672C36.5898 51.6856 37.9066 51.2732 39.2879 51.2732L42.7169 51.2823C44.7489 51.2823 46.5169 50.043 47.1331 48.1989L48.1722 45.0828C48.5961 43.8153 49.4161 42.7327 50.5443 41.9501L53.3068 40.0356C54.9458 38.9 55.6228 36.8948 54.9909 35.0457L53.9282 31.9382C53.5012 30.6888 53.5012 29.3126 53.9282 28.0632L54.9909 24.9552C55.6223 23.1071 54.9453 21.1014 53.3062 19.9654L50.5443 18.0508C49.4329 17.2803 48.5903 16.1669 48.1722 14.9161L47.1326 11.8005C46.5164 9.95695 44.7484 8.71766 42.7331 8.71766L39.3094 8.72724C37.9098 8.72724 36.5919 8.3133 35.4785 7.52975L32.7291 5.60008C31.931 5.0386 30.9873 4.742 29.9996 4.742C29.0119 4.742 28.0682 5.03859 27.2706 5.59957L24.5207 7.53025C23.4072 8.3133 22.0899 8.72724 20.7118 8.72724L17.2833 8.71766C15.2508 8.71766 13.4828 9.95644 12.8661 11.801L11.8233 14.9161C11.4047 16.1685 10.5637 17.2818 9.45491 18.0508L6.69242 19.9654C5.05337 21.1019 4.3769 23.1071 5.00883 24.9552L6.07096 28.0632C6.49802 29.3121 6.49802 30.6888 6.07096 31.9382L5.00883 35.0457C4.3769 36.8943 5.05337 38.8995 6.69294 40.0356L9.45491 41.9501C10.581 42.7312 11.4 43.8143 11.8239 45.0828L12.8666 48.1994C13.4834 50.0435 15.2518 51.2827 17.2671 51.2827L20.6903 51.2732Z"
        fill="#9B5626" />
    <path
        d="M39.9817 35.44V37.9488C39.9817 41.6379 38.1388 43.5565 33.8395 43.5565H24.1351C23.6746 43.5565 23.3057 43.4089 22.9991 43.0841L21.2794 41.3428C20.9723 41.0175 20.8188 40.6932 20.8188 40.2506V22.1589L18.792 18.2039H33.5329C37.8323 18.2039 39.6752 20.1225 39.6752 23.8116V26.1431C39.6752 28.4746 38.5696 30.1273 36.5118 30.7769C38.7844 31.4563 39.9817 33.1085 39.9817 35.44ZM27.5746 23.6646V28.0622H31.383C32.3964 28.0622 32.9188 27.5309 32.9188 26.5868V25.1405C32.9188 24.1666 32.3964 23.6646 31.383 23.6646H27.5746ZM33.2259 34.9974C33.2259 34.0235 32.7035 33.5214 31.6901 33.5214H27.5746V38.0963H31.6901C32.7035 38.0963 33.2259 37.565 33.2259 36.6203V34.9974Z"
        fill="#9B5626" />
    <path
        d="M39.9817 34.433V36.9418C39.9817 40.6309 38.1388 42.5495 33.8395 42.5495H24.1351C23.6746 42.5495 23.3057 42.402 22.9991 42.0772L21.2794 40.3363C20.9723 40.011 20.8188 39.6867 20.8188 39.2441V21.1524L18.792 17.1974H33.5329C37.8323 17.1974 39.6752 19.116 39.6752 22.8051V25.1366C39.6752 27.4682 38.5696 29.1209 36.5118 29.7705C38.7844 30.4493 39.9817 32.1015 39.9817 34.433ZM27.5746 22.6576V27.0552H31.383C32.3964 27.0552 32.9188 26.524 32.9188 25.5798V24.1335C32.9188 23.1596 32.3964 22.6576 31.383 22.6576H27.5746ZM33.2259 33.9904C33.2259 33.0165 32.7035 32.5144 31.6901 32.5144H27.5746V37.0893H31.6901C32.7035 37.0893 33.2259 36.5581 33.2259 35.6134V33.9904Z"
        fill="#EEBE91" />
</svg>
