<svg width="60" height="60" viewBox="0 0 60 60" fill="none" xmlns="http://www.w3.org/2000/svg">
    <defs>
        <linearGradient id="paint0_linear_1916_2399" x1="13.9494" y1="10.2221" x2="44.8459"
            y2="51.4469" gradientUnits="userSpaceOnUse">
            <stop stop-color="#B9DCE8" />
            <stop offset="1" stop-color="#7FC9CC" />
        </linearGradient>
    </defs>
    <path
        d="M58.4624 31.9086C58.0384 30.6698 58.0384 29.3313 58.4624 28.0931L59.6817 24.5259C60.5457 21.9975 59.6104 19.2204 57.3646 17.6628L54.1939 15.4658C53.0935 14.7024 52.273 13.6198 51.858 12.3785L50.6653 8.80424C49.8186 6.27033 47.3605 4.5547 44.5912 4.56326L40.6812 4.57384C39.3246 4.57887 38.0041 4.16444 36.909 3.39449L33.7535 1.17983C32.6363 0.393777 31.3185 0 30.0001 0C28.6823 0 27.3639 0.393777 26.2468 1.17983L23.0918 3.39449C21.9967 4.16444 20.6762 4.57887 19.3191 4.57384L15.4091 4.56326C12.6398 4.5542 10.1817 6.27033 9.33494 8.80424L8.13814 12.3785C7.72314 13.6203 6.90623 14.7029 5.80585 15.4658L2.6357 17.6628C0.389344 19.2204 -0.545981 21.997 0.318606 24.5259L1.53794 28.0931C1.96185 29.3313 1.96185 30.6698 1.53794 31.9086L0.318606 35.4758C-0.545981 38.0041 0.389868 40.7813 2.6357 42.3383L5.80585 44.5353C6.90623 45.2987 7.72314 46.3773 8.13814 47.6191L9.33494 51.1964C10.1822 53.7303 12.6398 55.4459 15.4091 55.4374L19.3191 55.4268C20.6757 55.4223 21.9962 55.8322 23.0918 56.6021L26.2468 58.8213C28.4821 60.3929 31.5192 60.3929 33.7535 58.8213L36.909 56.6021C38.0041 55.8322 39.3246 55.4223 40.6812 55.4268L44.5912 55.4374C47.3605 55.4464 49.8186 53.7303 50.6653 51.1964L51.858 47.6191C52.273 46.3773 53.0935 45.2987 54.1939 44.5353L57.3646 42.3383C59.6104 40.7813 60.5457 38.0041 59.6817 35.4758L58.4624 31.9086Z"
        fill="#D9EDEB" />
    <path
        d="M54.7997 31.6632C54.4308 30.5836 54.4308 29.4179 54.7997 28.3377L55.8623 25.2298C56.6153 23.0267 55.8005 20.6071 53.8429 19.25L51.0809 17.336C50.122 16.6713 49.4073 15.7276 49.0452 14.646L48.0061 11.5309C47.2683 9.32333 45.1268 7.82777 42.7138 7.83633L39.3068 7.84589C38.1247 7.84992 36.974 7.48938 36.0203 6.81813L33.2704 4.88849C32.2974 4.20365 31.1488 3.86072 30.0002 3.86072C28.8521 3.86072 27.7035 4.20365 26.7299 4.88849L23.9805 6.81813C23.0264 7.48938 21.8757 7.84992 20.6935 7.84589L17.2871 7.83633C14.8741 7.82777 12.7325 9.32333 11.9942 11.5309L10.9515 14.646C10.5899 15.7276 9.87834 16.6708 8.91943 17.336L6.15695 19.25C4.19983 20.6071 3.38503 23.0267 4.138 25.2298L5.20014 28.3377C5.56955 29.4174 5.56955 30.5836 5.20014 31.6632L4.138 34.7712C3.3845 36.9743 4.19983 39.3944 6.15695 40.7505L8.91943 42.665C9.87834 43.3302 10.5899 44.2704 10.9515 45.352L11.9942 48.469C12.7325 50.6772 14.8741 52.1722 17.2871 52.1642L20.6935 52.1546C21.8757 52.1506 23.0264 52.5076 23.9805 53.1788L26.7299 55.1125C28.6776 56.4822 31.3238 56.4822 33.2704 55.1125L36.0203 53.1788C36.974 52.5076 38.1252 52.1506 39.3068 52.1546L42.7138 52.1642C45.1263 52.1722 47.2678 50.6772 48.0061 48.469L49.0452 45.352C49.4067 44.2704 50.122 43.3302 51.0809 42.665L53.8429 40.7505C55.8 39.3944 56.6148 36.9743 55.8623 34.7712L54.7997 31.6632Z"
        fill="url(#paint0_linear_1916_2399)" />
    <path
        d="M30.0001 57.021C28.6199 57.021 27.302 56.6071 26.188 55.8235L23.4387 53.8899C22.6443 53.3314 21.7016 53.0358 20.7123 53.0358L17.2886 53.0454C14.4517 53.0454 11.9816 51.3147 11.1206 48.7385L10.0779 45.6214C9.7745 44.714 9.18816 43.939 8.38226 43.3796L5.62029 41.4655C3.32992 39.8783 2.38412 37.077 3.26652 34.4963L4.32865 31.3883C4.63466 30.4935 4.63466 29.508 4.32865 28.6132L3.26652 25.5047C2.38412 22.9245 3.32992 20.1232 5.61977 18.5355L8.38226 16.6209C9.17558 16.071 9.77765 15.2739 10.0774 14.3766L11.1201 11.261C11.981 8.68584 14.4506 6.9551 17.2655 6.9551L20.695 6.96466C21.6974 6.96466 22.6401 6.66807 23.4381 6.1071L26.188 4.17697C27.301 3.39343 28.6194 2.97949 29.999 2.97949C31.3792 2.97949 32.6976 3.39342 33.8111 4.17746L36.5599 6.10661C37.358 6.66808 38.3006 6.96466 39.2868 6.96466L42.7106 6.9551C45.548 6.9551 48.017 8.68584 48.8785 11.2615L49.9181 14.3771C50.2173 15.2719 50.8209 16.069 51.6169 16.6214L54.3788 18.535C56.6687 20.1232 57.615 22.924 56.7331 25.5047L55.6705 28.6127C55.365 29.5075 55.365 30.4935 55.6705 31.3883L56.7331 34.4963C57.615 37.0775 56.6692 39.8783 54.3788 41.4655L51.6169 43.3796C50.8083 43.9405 50.2209 44.716 49.9181 45.6214L48.879 48.7379C48.0181 51.3147 45.548 53.0454 42.7331 53.0454H42.7326L39.3041 53.0358C38.2985 53.0358 37.3559 53.3314 36.562 53.8899L33.8116 55.8235C32.6981 56.6071 31.3803 57.021 30.0001 57.021ZM20.6903 51.2734C22.0936 51.2734 23.4104 51.6863 24.5217 52.4678L27.2711 54.4015C28.0681 54.9619 29.0118 55.2585 30.0001 55.2585C30.9878 55.2585 31.9315 54.9619 32.7285 54.4015L35.4789 52.4678C36.5893 51.6863 37.9061 51.2734 39.2878 51.2734L42.7169 51.2829C42.7169 51.2829 42.7168 51.2829 42.7174 51.2829C44.7489 51.2829 46.5168 50.0437 47.1336 48.1996L48.1727 45.0831C48.5966 43.8162 49.4166 42.7335 50.5448 41.9505L53.3073 40.0359C54.9463 38.8999 55.6233 36.8947 54.9914 35.0462L53.9287 31.9382C53.5017 30.6894 53.5017 29.3126 53.9287 28.0633L54.9914 24.9553C55.6228 23.1073 54.9458 21.1016 53.3067 19.9651L50.5448 18.0515C49.4334 17.2811 48.5908 16.1677 48.1727 14.9159L47.1331 11.8003C46.5168 9.95681 44.7489 8.71805 42.7341 8.71805L39.3093 8.72763C37.9092 8.72763 36.5919 8.3137 35.4779 7.52966L32.729 5.60053C31.931 5.03906 30.9873 4.74246 29.9996 4.74246C29.0118 4.74246 28.0681 5.03906 27.2706 5.60002L24.5207 7.53017C23.4072 8.31371 22.0899 8.72763 20.7118 8.72763L17.2833 8.71805C15.2507 8.71805 13.4828 9.95682 12.8661 11.8009L11.8233 14.9164C11.4046 16.1682 10.5636 17.2821 9.45487 18.051L6.69238 19.9656C5.05386 21.1021 4.37686 23.1073 5.00879 24.9553L6.07093 28.0633C6.49798 29.3126 6.49798 30.6889 6.07093 31.9387L5.00879 35.0462C4.37686 36.8947 5.05333 38.8994 6.6929 40.0359L9.45487 41.95C10.5809 42.732 11.3999 43.8147 11.8238 45.0826L12.8666 48.1996C13.4833 50.0437 15.2518 51.2829 17.2671 51.2829L20.6903 51.2734Z"
        fill="#8DB5BA" />
    <path
        d="M40.1668 24.3406V28.915C40.1668 33.017 38.14 35.1128 33.7175 35.1128H29.8787L27.6371 29.6829H31.5681C32.9807 29.6829 33.718 28.9447 33.718 27.6168V25.6393C33.718 24.3109 32.9813 23.5727 31.5681 23.5727H27.0843V43.4945H20.635V22.0978L18.6082 18.1428H33.7175C38.14 18.1428 40.1668 20.2381 40.1668 24.3406Z"
        fill="#80B1B2" />
    <path
        d="M40.1668 23.3334V27.9078C40.1668 32.0098 38.14 34.1056 33.7175 34.1056H29.8787L27.6371 28.6757H31.5681C32.9807 28.6757 33.718 27.9375 33.718 26.6096V24.6321C33.718 23.3037 32.9813 22.5655 31.5681 22.5655H27.0843V42.4873H20.635V21.0906L18.6082 17.1356H33.7175C38.14 17.1356 40.1668 19.2309 40.1668 23.3334Z"
        fill="#DFEEEC" />
</svg>
