<svg width="60" height="60" viewBox="0 0 60 60" fill="none" xmlns="http://www.w3.org/2000/svg">
    <defs>
        <linearGradient id="paint0_linear_1916_2346" x1="9.62526" y1="8.36152" x2="44.2072"
            y2="48.1268" gradientUnits="userSpaceOnUse">
            <stop stop-color="#CFCFCF" />
            <stop offset="1" stop-color="#A3A3A3" />
        </linearGradient>
    </defs>
    <path
        d="M58.4626 31.9081C58.0387 30.6698 58.0387 29.3308 58.4626 28.092L59.6814 24.5253C60.546 21.9969 59.6107 19.2197 57.3643 17.6621L54.1937 15.4651C53.0933 14.7022 52.2727 13.619 51.8582 12.3782L50.6651 8.80388C49.8189 6.26993 47.3603 4.55427 44.591 4.56333L40.6815 4.57391C39.3244 4.57844 38.0045 4.16451 36.9093 3.39455L33.7533 1.17935C32.6367 0.393284 31.3184 0 30 0C28.6822 0 27.3638 0.393788 26.2467 1.17935L23.0917 3.39455C21.9966 4.16451 20.6761 4.57844 19.319 4.57391L15.409 4.56333C12.6397 4.55427 10.1817 6.26993 9.33489 8.80388L8.1381 12.3782C7.7231 13.6195 6.9062 14.7027 5.80582 15.4651L2.63569 17.6621C0.389342 19.2197 -0.545978 21.9964 0.318604 24.5253L1.53793 28.092C1.96184 29.3303 1.96184 30.6693 1.53793 31.9081L0.318604 35.4754C-0.545978 38.0038 0.389866 40.781 2.63569 42.338L5.80582 44.5356C6.9062 45.299 7.7231 46.3776 8.1381 47.6189L9.33489 51.1968C10.1822 53.7302 12.6397 55.4464 15.409 55.4378L19.319 55.4272C20.6756 55.4222 21.9961 55.8326 23.0917 56.6026L26.2467 58.8213C28.482 60.3929 31.519 60.3929 33.7533 58.8213L36.9093 56.6026C38.0045 55.8326 39.3244 55.4222 40.6815 55.4272L44.591 55.4378C47.3603 55.4469 49.8189 53.7302 50.6651 51.1968L51.8582 47.6189C52.2727 46.3776 53.0933 45.299 54.1937 44.5356L57.3643 42.338C59.6107 40.781 60.546 38.0038 59.6814 35.4754L58.4626 31.9081Z"
        fill="#E1E3E5" />
    <path
        d="M54.7994 31.6624C54.43 30.5828 54.43 29.417 54.7994 28.3374L55.8616 25.2293C56.6151 23.0262 55.8003 20.6066 53.8421 19.2495L51.0802 17.3349C50.1213 16.6702 49.4071 15.7265 49.0445 14.6453L48.0059 11.5308C47.2681 9.32313 45.1261 7.82754 42.7136 7.8361L39.3066 7.84566C38.1245 7.84969 36.9733 7.48914 36.0197 6.81788L33.2698 4.88771C32.2967 4.20285 31.1486 3.85992 29.9995 3.85992C28.8515 3.85992 27.7029 4.20285 26.7293 4.88771L23.9799 6.81788C23.0258 7.48914 21.8751 7.84919 20.693 7.84566L17.2865 7.8361C14.8735 7.82804 12.732 9.32313 11.9937 11.5308L10.9509 14.6453C10.5894 15.727 9.87782 16.6702 8.91892 17.3349L6.15644 19.2495C4.19934 20.6066 3.38454 23.0262 4.13751 25.2293L5.19964 28.3374C5.56905 29.4165 5.56905 30.5828 5.19964 31.6624L4.13751 34.7704C3.38402 36.9735 4.19934 39.3937 6.15644 40.7498L8.91892 42.6644C9.87782 43.3296 10.5894 44.2697 10.9509 45.3514L11.9937 48.468C12.732 50.6761 14.8735 52.1712 17.2865 52.1632L20.693 52.1541C21.8751 52.1501 23.0258 52.5071 23.9799 53.1779L26.7293 55.1116C28.677 56.4818 31.3231 56.4818 33.2698 55.1116L36.0197 53.1779C36.9733 52.5071 38.125 52.1501 39.3066 52.1541L42.7136 52.1632C45.1261 52.1712 47.2676 50.6761 48.0059 48.468L49.0445 45.3514C49.4065 44.2697 50.1213 43.3291 51.0802 42.6644L53.8421 40.7498C55.7997 39.3937 56.6145 36.9735 55.8616 34.7704L54.7994 31.6624Z"
        fill="url(#paint0_linear_1916_2346)" />
    <path
        d="M29.9999 57.0205C28.6198 57.0205 27.3014 56.6065 26.1879 55.823L23.4385 53.8893C22.6442 53.3308 21.7015 53.0357 20.7122 53.0357L17.2885 53.0448C14.4516 53.0448 11.9815 51.314 11.1206 48.7378L10.0779 45.6212C9.77447 44.7133 9.18813 43.9383 8.38223 43.3788L5.62028 41.4647C3.32992 39.8775 2.38412 37.0767 3.26652 34.4954L4.32864 31.3879C4.63465 30.493 4.63465 29.5075 4.32864 28.6127L3.26652 25.5047C2.38412 22.9239 3.32992 20.123 5.61975 18.5353L8.38223 16.6207C9.17555 16.0708 9.77761 15.2737 10.0773 14.3763L11.1201 11.2613C11.981 8.686 14.4506 6.95524 17.2659 6.95524L20.6944 6.96481C21.6968 6.96481 22.6395 6.66821 23.4375 6.10723L26.1874 4.17655C27.3009 3.3935 28.6192 2.97906 29.9984 2.97906C31.378 2.97906 32.6964 3.3935 33.8104 4.17705L36.5592 6.10672C37.3573 6.6682 38.2999 6.96481 39.2866 6.96481L42.7098 6.95524C45.5467 6.95524 48.0168 8.686 48.8777 11.2618L49.9163 14.3768C50.2165 15.2722 50.8201 16.0693 51.615 16.6207L54.377 18.5353C56.6673 20.123 57.6137 22.9239 56.7307 25.5052L55.6691 28.6127C55.3626 29.5075 55.3626 30.493 55.6686 31.3874L56.7313 34.4959C57.6137 37.0772 56.6679 39.878 54.377 41.4647L51.615 43.3793C50.8076 43.9393 50.2197 44.7148 49.9163 45.6217L48.8782 48.7378C48.0168 51.3145 45.5472 53.0453 42.7324 53.0453C42.7318 53.0453 42.7318 53.0453 42.7318 53.0453L39.3034 53.0362C38.2973 53.0362 37.3541 53.3313 36.5603 53.8898L33.8104 55.8235C32.6985 56.6065 31.3801 57.0205 29.9999 57.0205ZM20.6907 51.2733C22.0935 51.2733 23.4108 51.6857 24.5222 52.4672L27.2715 54.4009C28.0685 54.9619 29.0122 55.258 30.0005 55.258C30.9882 55.258 31.9319 54.9619 32.7284 54.4009L35.4788 52.4672C36.5891 51.6857 37.9069 51.2733 39.2882 51.2733L42.7172 51.2823C42.7172 51.2823 42.7172 51.2823 42.7177 51.2823C44.7492 51.2823 46.5171 50.043 47.1339 48.199L48.1719 45.0829C48.5969 43.8149 49.4169 42.7322 50.544 41.9502L53.3065 40.0356C54.946 38.9001 55.623 36.8949 54.9911 35.0463L53.9285 31.9383C53.5014 30.6889 53.5014 29.3126 53.929 28.0628L54.9911 24.9553C55.623 23.1067 54.946 21.1015 53.3065 19.9649L50.5445 18.0504C49.4342 17.2804 48.5916 16.1675 48.1724 14.9156L47.1339 11.8001C46.5171 9.9565 44.7492 8.71722 42.7345 8.71722L39.3107 8.72679C37.9106 8.72679 36.5928 8.31285 35.4788 7.5293L32.7299 5.59963C31.9319 5.03815 30.9882 4.74155 30.001 4.74155C29.0138 4.74155 28.0696 5.03816 27.2721 5.59913L24.5222 7.52981C23.4087 8.31286 22.0914 8.72679 20.7133 8.72679L17.2848 8.71722C15.2523 8.71722 13.4843 9.956 12.8676 11.8006L11.8248 14.9156C11.4062 16.168 10.5652 17.2814 9.45641 18.0504L6.69394 19.9649C5.0549 21.1015 4.37843 23.1067 5.01036 24.9548L6.07248 28.0628C6.49953 29.3116 6.49953 30.6884 6.07248 31.9378L5.01036 35.0453C4.37843 36.8939 5.05489 38.8991 6.69445 40.0351L9.45641 41.9497C10.5825 42.7307 11.4015 43.8139 11.8254 45.0824L12.8681 48.199C13.4848 50.043 15.2533 51.2823 17.2686 51.2823L20.6907 51.2733Z"
        fill="#9A9D9F" />
    <path
        d="M39.1228 36.9161C39.1228 41.5796 36.3593 43.5571 29.8786 43.5571H21.0955V38.0969H29.8786C31.9059 38.0969 32.6735 37.5954 32.6735 36.4145C32.6735 34.998 32.182 34.437 28.2511 33.0497C21.7714 30.777 20.8806 29.6556 20.8806 24.6975C20.8806 20.1523 23.6137 18.2045 29.9404 18.2045H37.2495L38.6318 23.6642H29.9404C28.0058 23.6642 27.3299 24.1068 27.3299 25.199C27.3299 26.3205 27.7905 26.9701 31.6297 28.298C38.2016 30.5706 39.1228 31.692 39.1228 36.9161Z"
        fill="#9A9C9F" />
    <path
        d="M39.1228 35.909C39.1228 40.5725 36.3588 42.55 29.8786 42.55H21.0955V37.0898H29.8786C31.9059 37.0898 32.673 36.5883 32.673 35.4074C32.673 33.9909 32.182 33.4299 28.2511 32.0426C21.7714 29.77 20.8806 28.6485 20.8806 23.6904C20.8806 19.1452 23.6137 17.1974 29.9404 17.1974H37.249L38.6318 22.6571H29.9404C28.0058 22.6571 27.3299 23.0997 27.3299 24.1919C27.3299 25.3134 27.7905 25.963 31.6297 27.2909C38.2016 29.5635 39.1228 30.685 39.1228 35.909Z"
        fill="#E1E3E5" />
</svg>
