<svg width="60" height="60" viewBox="0 0 60 60" fill="none" xmlns="http://www.w3.org/2000/svg">
    <defs>
        <linearGradient id="paint0_linear_1916_2410" x1="13.6631" y1="8.84666" x2="45.1676"
            y2="53.0172" gradientUnits="userSpaceOnUse">
            <stop stop-color="#DEDCEE" />
            <stop offset="1" stop-color="#ADABCC" />
        </linearGradient>
    </defs>
    <path
        d="M58.4624 31.9086C58.0384 30.6698 58.0384 29.3313 58.4624 28.0931L59.6817 24.5259C60.5457 21.9975 59.6104 19.2204 57.3646 17.6628L54.1939 15.4658C53.0935 14.7024 52.273 13.6198 51.858 12.3785L50.6653 8.80424C49.8186 6.27033 47.3605 4.5547 44.5912 4.56326L40.6812 4.57384C39.3246 4.57887 38.0041 4.16444 36.909 3.39449L33.7535 1.17983C32.6363 0.393777 31.3185 0 30.0001 0C28.6823 0 27.3639 0.393777 26.2468 1.17983L23.0918 3.39449C21.9967 4.16444 20.6762 4.57887 19.3191 4.57384L15.4091 4.56326C12.6398 4.5542 10.1817 6.27033 9.33494 8.80424L8.13814 12.3785C7.72314 13.6203 6.90624 14.7029 5.80585 15.4658L2.6357 17.6628C0.389344 19.2204 -0.545981 21.997 0.318606 24.5259L1.53793 28.0931C1.96184 29.3313 1.96184 30.6698 1.53793 31.9086L0.318606 35.4758C-0.545981 38.0041 0.389868 40.7813 2.6357 42.3383L5.80585 44.5353C6.90624 45.2987 7.72314 46.3773 8.13814 47.6191L9.33494 51.1964C10.1822 53.7303 12.6398 55.4459 15.4091 55.4374L19.3191 55.4268C20.6757 55.4223 21.9962 55.8322 23.0918 56.6021L26.2468 58.8213C28.4821 60.3929 31.5192 60.3929 33.7535 58.8213L36.909 56.6021C38.0041 55.8322 39.3246 55.4223 40.6812 55.4268L44.5912 55.4374C47.3605 55.4464 49.8186 53.7303 50.6653 51.1964L51.858 47.6191C52.273 46.3773 53.0935 45.2987 54.1939 44.5353L57.3646 42.3383C59.6104 40.7813 60.5457 38.0041 59.6817 35.4758L58.4624 31.9086Z"
        fill="#E1E1EF" />
    <path
        d="M54.7997 31.6632C54.4308 30.5836 54.4308 29.4179 54.7997 28.3377L55.8623 25.2298C56.6153 23.0267 55.8005 20.6071 53.8429 19.25L51.0809 17.336C50.122 16.6713 49.4073 15.7276 49.0452 14.646L48.0061 11.5309C47.2683 9.32333 45.1268 7.82777 42.7138 7.83633L39.3068 7.84589C38.1247 7.84992 36.974 7.48938 36.0203 6.81813L33.2704 4.88849C32.2973 4.20365 31.1488 3.86072 30.0002 3.86072C28.8521 3.86072 27.7035 4.20365 26.7299 4.88849L23.9805 6.81813C23.0264 7.48938 21.8757 7.84992 20.6935 7.84589L17.2871 7.83633C14.8741 7.82777 12.7325 9.32333 11.9942 11.5309L10.9515 14.646C10.5899 15.7276 9.87834 16.6708 8.91943 17.336L6.15694 19.25C4.19983 20.6071 3.38503 23.0267 4.138 25.2298L5.20013 28.3377C5.56955 29.4174 5.56955 30.5836 5.20013 31.6632L4.138 34.7712C3.3845 36.9743 4.19983 39.3944 6.15694 40.7505L8.91943 42.665C9.87834 43.3302 10.5899 44.2704 10.9515 45.352L11.9942 48.469C12.7325 50.6772 14.8741 52.1722 17.2871 52.1642L20.6935 52.1546C21.8757 52.1506 23.0264 52.5076 23.9805 53.1788L26.7299 55.1125C28.6776 56.4822 31.3238 56.4822 33.2704 55.1125L36.0203 53.1788C36.974 52.5076 38.1252 52.1506 39.3068 52.1546L42.7138 52.1642C45.1263 52.1722 47.2678 50.6772 48.0061 48.469L49.0452 45.352C49.4067 44.2704 50.122 43.3302 51.0809 42.665L53.8429 40.7505C55.8 39.3944 56.6148 36.9743 55.8623 34.7712L54.7997 31.6632Z"
        fill="url(#paint0_linear_1916_2410)" />
    <path
        d="M30.0001 57.021C28.6199 57.021 27.302 56.6071 26.188 55.8235L23.4387 53.8899C22.6443 53.3314 21.7016 53.0358 20.7123 53.0358L17.2886 53.0454C14.4517 53.0454 11.9816 51.3147 11.1206 48.7385L10.0779 45.6214C9.77451 44.714 9.18816 43.939 8.38226 43.3796L5.6203 41.4655C3.32993 39.8783 2.38412 37.077 3.26652 34.4963L4.32866 31.3883C4.63467 30.4935 4.63467 29.508 4.32866 28.6132L3.26652 25.5047C2.38412 22.9245 3.32993 20.1232 5.61978 18.5355L8.38226 16.6209C9.17558 16.071 9.77765 15.2739 10.0774 14.3766L11.1201 11.261C11.981 8.68584 14.4506 6.9551 17.2655 6.9551L20.695 6.96466C21.6974 6.96466 22.6401 6.66807 23.4381 6.1071L26.188 4.17697C27.301 3.39343 28.6194 2.97949 29.999 2.97949C31.3792 2.97949 32.6976 3.39342 33.8111 4.17746L36.5599 6.10661C37.358 6.66808 38.3006 6.96466 39.2868 6.96466L42.71 6.9551C45.5475 6.9551 48.017 8.68584 48.878 11.2615L49.917 14.3771C50.2167 15.2719 50.8204 16.069 51.6158 16.6214L54.3778 18.535C56.6676 20.1232 57.6139 22.924 56.7321 25.5047L55.6689 28.6127C55.3634 29.5075 55.3634 30.4935 55.6694 31.3883L56.7315 34.4963C57.6139 37.0775 56.6676 39.8783 54.3778 41.4655L51.6158 43.3796C50.8073 43.9405 50.2199 44.716 49.917 45.6214L48.8785 48.7379C48.017 51.3147 45.5475 53.0454 42.7326 53.0454C42.732 53.0454 42.7321 53.0454 42.7321 53.0454L39.3036 53.0358C38.2975 53.0358 37.3548 53.3314 36.5615 53.8899L33.8111 55.8235C32.6981 56.6071 31.3803 57.021 30.0001 57.021ZM20.6903 51.2734C22.0936 51.2734 23.4104 51.6863 24.5217 52.4678L27.2711 54.4015C28.0681 54.9619 29.0118 55.2585 30.0001 55.2585C30.9878 55.2585 31.9315 54.9619 32.7285 54.4015L35.4789 52.4678C36.5888 51.6863 37.9066 51.2734 39.2879 51.2734L42.7168 51.2829H42.7174C44.7489 51.2829 46.5168 50.0437 47.1336 48.1996L48.1721 45.0831C48.596 43.8162 49.4161 42.7335 50.5443 41.9505L53.3067 40.0359C54.9458 38.8999 55.6228 36.8947 54.9908 35.0462L53.9287 31.9382C53.5017 30.6894 53.5017 29.3126 53.9282 28.0633L54.9914 24.9553C55.6228 23.1073 54.9458 21.1016 53.3062 19.9651L50.5443 18.0515C49.4329 17.2811 48.5903 16.1677 48.1721 14.9159L47.1331 11.8003C46.5163 9.95681 44.7489 8.71805 42.7336 8.71805L39.3093 8.72763C37.9092 8.72763 36.5919 8.3137 35.4779 7.52966L32.729 5.60053C31.931 5.03906 30.9873 4.74246 29.9996 4.74246C29.0118 4.74246 28.0681 5.03906 27.2706 5.60002L24.5207 7.53017C23.4072 8.31371 22.0899 8.72763 20.7118 8.72763L17.2833 8.71805C15.2507 8.71805 13.4828 9.95682 12.8661 11.8009L11.8233 14.9164C11.4046 16.1682 10.5636 17.2821 9.45487 18.051L6.69239 19.9656C5.05386 21.1021 4.37687 23.1073 5.0088 24.9553L6.07093 28.0633C6.49798 29.3126 6.49798 30.6889 6.07093 31.9387L5.0088 35.0462C4.37687 36.8947 5.05333 38.8994 6.69291 40.0359L9.45487 41.95C10.5809 42.732 11.3999 43.8147 11.8238 45.0826L12.8666 48.1996C13.4833 50.0437 15.2518 51.2829 17.2671 51.2829L20.6903 51.2734Z"
        fill="#A1A1B7" />
    <path
        d="M39.6449 24.3446V37.4185C39.6449 41.8161 35.499 43.5574 29.8787 43.5574H23.9513C23.4907 43.5574 23.1218 43.4099 22.8153 43.0851L21.0956 41.3443C20.7885 41.019 20.635 40.6947 20.635 40.252V22.1606L18.6082 18.2057H29.8787C35.499 18.2057 39.6449 19.9465 39.6449 24.3446ZM33.2569 26.027C33.2569 24.4629 31.7211 23.6658 29.8787 23.6658H27.3913V38.0978H29.8787C31.7216 38.0978 33.2569 37.3007 33.2569 35.7371V26.027Z"
        fill="#A1A1B7" />
    <path
        d="M39.6449 23.3375V36.4114C39.6449 40.809 35.499 42.5503 29.8787 42.5503H23.9513C23.4907 42.5503 23.1218 42.4028 22.8153 42.078L21.0956 40.3372C20.7885 40.0119 20.635 39.6876 20.635 39.245V21.1536L18.6082 17.1986H29.8787C35.499 17.1986 39.6449 18.9394 39.6449 23.3375ZM33.2569 25.0199C33.2569 23.4558 31.7211 22.6587 29.8787 22.6587H27.3913V37.0907H29.8787C31.7216 37.0907 33.2569 36.2936 33.2569 34.73V25.0199Z"
        fill="#E9E9F1" />
</svg>
