<svg width="48" height="48" viewBox="0 0 48 48" fill="none" xmlns="http://www.w3.org/2000/svg">
<path fill-rule="evenodd" clip-rule="evenodd" d="M34.5235 13.7438C34.5722 14.4978 34.5064 19.2096 34.4705 21.6711C36.5209 23.9837 37.7595 26.9843 37.7596 30.2642C37.7596 37.576 31.6062 43.5036 24.0158 43.5036C16.4254 43.5036 10.272 37.576 10.272 30.2642C10.272 27.018 11.4855 24.0453 13.4983 21.7426C13.4978 21.5348 13.4972 21.306 13.4966 21.0612C13.4899 18.5165 13.4787 14.2311 13.5301 13.5941C13.7302 11.1148 15.0413 8.62667 17.037 6.93851C19.0481 5.2371 21.4449 4.38875 24.1605 4.41668C24.4647 4.41985 24.7772 4.43406 25.0895 4.45912C30.0701 4.86011 34.214 8.93828 34.5235 13.7438ZM18.8307 11.6565C18.2528 12.5973 18.0394 15.621 17.9626 18.3756C19.789 17.511 21.8432 17.0247 24.0158 17.0247C26.1842 17.0247 28.2347 17.5092 30.0586 18.3707C29.9991 15.5628 29.7776 12.6065 29.1535 11.5988C28.0393 9.79969 26.1894 8.7554 24.0783 8.7338C24.0055 8.73284 23.9324 8.73342 23.8584 8.73486C21.7763 8.77902 19.9438 9.84404 18.8307 11.6565ZM26.1462 27.9837C26.1462 28.4298 26.0045 28.8426 25.7636 29.18C26.5121 29.7079 27.0009 30.5791 27.0009 31.5646C27.0009 33.1749 25.6954 34.4805 24.085 34.4805C22.4746 34.4805 21.1691 33.1749 21.1691 31.5646C21.1691 30.5791 21.6582 29.7079 22.4066 29.1801C22.1657 28.8426 22.024 28.4297 22.024 27.9837C22.024 26.8454 22.9467 25.9226 24.085 25.9226C25.2234 25.9226 26.1462 26.8455 26.1462 27.9837Z" fill="#636778"/>
</svg>
