<svg width="24" height="24" viewBox="0 0 24 24" fill="none" xmlns="http://www.w3.org/2000/svg">
    <defs>
        <clipPath id="clip0_1923_2017">
            <rect width="24" height="24" fill="white" />
        </clipPath>
    </defs>
    <g clip-path="url(#clip0_1923_2017)">
        <path
            d="M20.46 13.6575C20.6158 13.6121 20.7526 13.5173 20.85 13.3875C20.9474 13.2577 21 13.0998 21 12.9375V9.5625C21 9.40022 20.9474 9.24232 20.85 9.1125C20.7526 8.98268 20.6158 8.88794 20.46 8.8425L3.96 3.78C3.84822 3.7474 3.73039 3.74127 3.61584 3.7621C3.50128 3.78293 3.39315 3.83014 3.3 3.9C3.20685 3.96986 3.13125 4.06045 3.07918 4.16459C3.02711 4.26873 3 4.38357 3 4.5V18C3 18.1164 3.02711 18.2313 3.07918 18.3354C3.13125 18.4396 3.20685 18.5301 3.3 18.6C3.39315 18.6699 3.50128 18.7171 3.61584 18.7379C3.73039 18.7587 3.84822 18.7526 3.96 18.72L20.46 13.6575Z"
            stroke="white" stroke-width="1.5" stroke-linecap="round" stroke-linejoin="round" />
        <path
            d="M17.25 14.6419V18C17.25 18.1989 17.171 18.3897 17.0303 18.5303C16.8897 18.671 16.6989 18.75 16.5 18.75H13.5C13.3011 18.75 13.1103 18.671 12.9697 18.5303C12.829 18.3897 12.75 18.1989 12.75 18V6.47717"
            stroke="white" stroke-width="1.5" stroke-linecap="round" stroke-linejoin="round" />
    </g>
</svg>
