<svg width="240" height="240" viewBox="0 0 240 240" fill="none" xmlns="http://www.w3.org/2000/svg">
    <path
        d="M80.58 120.723C80.58 120.723 73.1744 130.842 69.2584 132.078C66.8272 132.845 64.8744 131.554 63.4168 129.516C61.9584 127.478 60.3208 124.522 60.3208 124.522L52.7368 130.206C52.7368 130.206 56.9888 137.052 61.108 140.188C64.5848 142.837 68.9632 142.558 72.976 140.064C76.7936 137.691 82.4608 133.373 88.3576 123.834"
        fill="#EBC674" />
    <path
        d="M80.58 120.723C80.58 120.723 73.1744 130.842 69.2584 132.078C66.8272 132.845 64.8744 131.554 63.4168 129.516C61.9584 127.478 60.3208 124.522 60.3208 124.522L52.7368 130.206C52.7368 130.206 56.9888 137.052 61.108 140.188C64.5848 142.837 68.9632 142.558 72.976 140.064C76.7936 137.691 82.4608 133.373 88.3576 123.834"
        stroke="#B47A2C" stroke-width="2.25" stroke-miterlimit="10" stroke-linecap="round"
        stroke-linejoin="round" />
    <path
        d="M119.101 147.5C119.101 147.5 113.318 159.294 111.205 164.397C109.09 169.5 108.852 179.731 108.852 179.731C108.852 179.731 102.147 174.888 93.704 177.01C85.8272 178.99 81.9616 184.875 84.2304 192.293C86.1424 198.553 93.4848 202.538 104.916 202.218C116.353 201.898 119.327 196.603 118.302 189.013C117.278 181.423 114.286 171.738 123.035 157.096C126.618 151.108 128.482 147.023 128.482 147.023L119.101 147.5Z"
        fill="#EBC674" stroke="#B47A2C" stroke-width="2.25" stroke-miterlimit="10"
        stroke-linecap="round" stroke-linejoin="round" />
    <path
        d="M88.4208 187.917C88.4208 187.917 87.7432 185.794 90.5024 183.58C95.2912 179.738 103.547 180.914 108.619 184.932C110.095 186.102 111.31 187.448 112.201 188.984C113.15 190.619 113.862 192.79 112.9 195.166"
        stroke="#B47A2C" stroke-width="2.25" stroke-miterlimit="10" stroke-linecap="round"
        stroke-linejoin="round" />
    <path
        d="M147.91 140.872C146.264 144.563 144.519 148.208 142.894 151.908C142.066 153.788 141.27 155.685 140.532 157.604C139.899 159.255 139.038 160.829 138.648 162.512C138.098 164.884 137.737 167.65 138.988 169.878C140.218 172.068 142.741 173.33 143.819 175.601C144.467 176.962 144.287 178.298 143.205 179.362C142.218 180.335 141.545 181.204 140.863 182.44C139.271 185.322 138.515 188.136 138.242 191.386C137.994 194.322 137.958 197.626 139.795 200.187C141.638 202.758 145.146 204.051 148.153 203.815C149.789 203.688 151.698 203.126 153.183 202.406C160.226 198.99 163.332 190.727 162.714 183.249C162.494 180.592 161.725 176.126 158.907 174.702C156.9 173.689 154.342 173.583 152.226 172.767C150.432 172.076 149.215 170.292 148.212 168.682C146.704 166.263 146.806 162.662 147.921 160.152C149.382 156.867 150.445 153.494 152.192 150.319C155.552 144.202 157.264 140.053 157.264 140.053L147.91 140.872Z"
        fill="#EBC674" stroke="#B47A2C" stroke-width="2.25" stroke-miterlimit="10"
        stroke-linecap="round" stroke-linejoin="round" />
    <path d="M143.204 174.445C143.204 174.445 145.487 177.283 150.274 180.408L143.204 174.445Z"
        fill="#E9C972" />
    <path d="M143.204 174.445C143.204 174.445 145.487 177.283 150.274 180.408" stroke="#B47A2C"
        stroke-width="2.25" stroke-miterlimit="10" stroke-linecap="round" stroke-linejoin="round" />
    <path
        d="M157.049 89.6736C157.806 88.7328 158.458 88.1872 159.17 87.4224C160.752 85.7144 162.528 84.2184 164.106 82.4896C166.73 79.6208 169.167 76.576 171.302 73.3384C173.521 69.9752 176.044 65.856 175.767 61.7576C175.502 57.8032 174.438 53.8104 172.421 50.3896C170.267 46.7344 167.013 44.4816 163.236 42.6912C160.706 41.492 157.96 40.4088 155.307 39.4936C143.219 35.3296 129.14 36.0328 116.728 40.0232C84.684 50.3232 63.0464 86.8456 71.7512 119.649C80.62 153.079 100.314 166.324 129.013 167.714C157.705 169.105 187.463 147.101 196.643 126.144C198.826 121.157 200.866 116.061 202.032 110.74C203.145 105.645 203.743 99.6576 201.299 94.872C200.39 93.088 199.222 91.4112 197.887 89.9192C195.631 87.3952 192.439 85.8152 189.112 85.1816C185.446 84.4848 182.082 85.2224 178.511 86.0728C172.823 87.4296 168.005 90.0672 162.45 91.5928C161.086 91.968 157.212 93.3608 156.131 91.9248C155.634 91.2608 156.565 90.2744 157.049 89.6736Z"
        fill="#EBC674" stroke="#B47A2C" stroke-width="2.25" stroke-miterlimit="10" />
    <path d="M158.33 88.3232C158.33 88.3232 150.51 97.74 151.371 103.622L158.33 88.3232Z"
        fill="#E9C972" />
    <path d="M158.33 88.3232C158.33 88.3232 150.51 97.74 151.371 103.622" stroke="#B47A2C"
        stroke-width="2.25" stroke-miterlimit="10" stroke-linecap="round" />
    <path d="M167.545 61.4056C167.545 61.4064 169.089 66.3216 174.062 67.6824" stroke="#B47A2C"
        stroke-width="2.25" stroke-linecap="round" stroke-linejoin="round" />
    <path d="M162.94 62.8656C162.94 62.8656 164.553 70.6168 171.607 72.1376" stroke="#B47A2C"
        stroke-width="2.25" stroke-linecap="round" stroke-linejoin="round" />
    <path d="M159.236 67.6824C159.236 67.6824 161.112 75.4072 168.634 76.8936" stroke="#B47A2C"
        stroke-width="2.25" stroke-linecap="round" stroke-linejoin="round" />
    <path d="M156.15 73.2576C156.15 73.2576 157.715 80.0032 164.7 81.3744" stroke="#B47A2C"
        stroke-width="2.25" stroke-linecap="round" stroke-linejoin="round" />
    <path d="M153.406 79.3992C153.406 79.3992 155.155 85.06 160.562 85.6496" stroke="#B47A2C"
        stroke-width="2.25" stroke-linecap="round" stroke-linejoin="round" />
    <path d="M150.687 85.5048C150.687 85.5048 152.293 88.8624 156.888 89.936" stroke="#B47A2C"
        stroke-width="2.25" stroke-linecap="round" stroke-linejoin="round" />
    <path d="M149.334 91.8784C149.334 91.8784 150.318 94.2704 153.406 94.8416" stroke="#B47A2C"
        stroke-width="2.25" stroke-linecap="round" stroke-linejoin="round" />
    <path d="M171.823 59.264C171.823 59.264 172.884 62.648 175.766 63.06" stroke="#B47A2C"
        stroke-width="2.25" stroke-linecap="round" stroke-linejoin="round" />
    <path d="M160.334 92.304C159.145 94.5304 158.462 96.904 159.03 99.644" stroke="#B47A2C"
        stroke-width="2.25" stroke-miterlimit="10" stroke-linecap="round" />
    <path d="M187.882 85.5048C187.115 86.884 186.602 89.9856 187.459 92.4056" stroke="#B47A2C"
        stroke-width="2.25" stroke-miterlimit="10" stroke-linecap="round" />
    <path d="M192.447 86.3608C190.958 89.0544 192.248 91.6704 191.806 90.5576" stroke="#B47A2C"
        stroke-width="2.25" stroke-miterlimit="10" stroke-linecap="round" />
    <path d="M164.792 91.0752C163.24 94.076 162.838 98.2432 163.849 101.588" stroke="#B47A2C"
        stroke-width="2.25" stroke-miterlimit="10" stroke-linecap="round" />
    <path
        d="M169.577 89.5008C168.729 91.2728 168.235 92.8512 167.899 94.6192C167.538 96.5136 167.429 98.44 167.89 100.317C167.977 100.685 168.19 101.403 168.394 101.724"
        stroke="#B47A2C" stroke-width="2.25" stroke-miterlimit="10" stroke-linecap="round" />
    <path
        d="M174.653 87.4736C173.023 89.9088 172.406 93.1496 172.337 95.2416C172.254 97.8008 172.903 100.026 174.018 101.587"
        stroke="#B47A2C" stroke-width="2.25" stroke-miterlimit="10" stroke-linecap="round" />
    <path
        d="M179.274 86.2464C178.533 87.1456 177.854 89.4976 177.602 90.7232C177.069 93.352 177.458 96.6944 178.58 97.952"
        stroke="#B47A2C" stroke-width="2.25" stroke-miterlimit="10" stroke-linecap="round" />
    <path d="M184.369 85.0536C182.755 85.9952 181.247 90.9984 182.695 94.1104" stroke="#B47A2C"
        stroke-width="2.25" stroke-miterlimit="10" stroke-linecap="round" />
    <path
        d="M128.226 42.4688C127.293 42.5056 126.247 42.7392 125.708 42.8256C124.002 43.1016 122.313 43.488 120.647 43.9536C114.717 45.6136 109.081 48.2992 103.97 51.7248C91.012 60.412 83.7152 71.6912 80.16 81.3248C78.836 84.9128 77.7512 88.5928 76.9704 92.3376C76.3296 95.4112 75.876 98.5392 75.7496 101.695C75.7136 102.574 75.6056 103.485 75.8224 104.35C75.8976 104.649 75.9776 104.921 76.2544 105.079C76.5472 105.246 76.9888 105.347 77.2712 105.107C77.7144 104.731 77.9032 103.999 78.0592 103.467C78.3072 102.628 78.4104 101.757 78.6256 100.91C80.0816 95.1728 82.1768 89.652 84.6024 84.2376C88.0216 76.6048 92.5584 69.3296 98.7392 63.6224C111.855 51.5168 116 50.1272 122.434 46.7832C125.213 45.3392 130.296 44.2672 129.948 42.9496C129.821 42.468 128.983 42.4392 128.226 42.4688Z"
        fill="#ECDEB5" />
    <path d="M96.1024 89.2528L96.4968 85.0592" stroke="#9F6926" stroke-width="2.25"
        stroke-linecap="round" stroke-linejoin="round" />
    <path d="M100.754 90.3272L102.476 88.0696" stroke="#9F6926" stroke-width="2.25"
        stroke-linecap="round" stroke-linejoin="round" />
    <path d="M91.3328 89.7952L90.3056 87.1704" stroke="#9F6926" stroke-width="2.25"
        stroke-linecap="round" stroke-linejoin="round" />
    <path d="M133.195 89.2536L133.59 85.06" stroke="#9F6926" stroke-width="2.25"
        stroke-linecap="round" stroke-linejoin="round" />
    <path d="M137.846 90.328L139.57 88.0704" stroke="#9F6926" stroke-width="2.25"
        stroke-linecap="round" stroke-linejoin="round" />
    <path d="M128.426 89.7968L127.399 87.1712" stroke="#9F6926" stroke-width="2.25"
        stroke-linecap="round" stroke-linejoin="round" />
    <path
        d="M135.374 106.658C135.374 106.658 131.667 104.7 131.782 102.898C131.898 101.093 135.872 99.7152 135.872 99.7152C135.669 94.372 132.862 90.9488 128.832 89.388C130.288 88.6624 131.861 88.3368 133.469 88.5056C139.302 89.1192 143.357 96.016 142.526 103.913C141.697 111.808 136.295 117.712 130.462 117.099C128.855 116.93 127.379 116.282 126.109 115.267C130.378 114.582 134.059 111.842 135.374 106.658Z"
        fill="white" stroke="#9F6926" stroke-width="2.25" stroke-linecap="round"
        stroke-linejoin="round" />
    <path
        d="M121.406 101.69C122.008 95.9728 125.006 91.2992 128.832 89.388C132.862 90.9488 135.669 94.372 135.872 99.7152C135.872 99.7152 131.852 101.078 131.782 102.898C131.712 104.715 135.374 106.658 135.374 106.658C134.059 111.842 130.378 114.582 126.109 115.268C122.766 112.606 120.804 107.41 121.406 101.69Z"
        fill="#9F6926" stroke="#9F6926" stroke-width="2.25" stroke-linecap="square"
        stroke-linejoin="round" />
    <path
        d="M98.34 106.658C98.34 106.658 94.6328 104.7 94.7488 102.898C94.8648 101.093 98.8376 99.7152 98.8376 99.7152C98.636 94.372 95.8288 90.9488 91.7984 89.388C93.256 88.6624 94.8288 88.3368 96.436 88.5056C102.27 89.1192 106.325 96.016 105.494 103.913C104.663 111.808 99.2608 117.712 93.4296 117.099C91.8216 116.93 90.3472 116.282 89.076 115.267C93.3448 114.582 97.0264 111.842 98.34 106.658Z"
        fill="white" stroke="#9F6926" stroke-width="2.25" stroke-linecap="square"
        stroke-linejoin="round" />
    <path
        d="M84.3728 101.69C84.9752 95.9728 87.9728 91.2992 91.7984 89.388C95.8296 90.9488 98.636 94.372 98.8376 99.7152C98.8376 99.7152 94.8176 101.078 94.7488 102.898C94.6792 104.715 98.34 106.658 98.34 106.658C97.0256 111.842 93.344 114.582 89.0752 115.268C85.7328 112.606 83.7712 107.41 84.3728 101.69Z"
        fill="#9F6926" stroke="#9F6926" stroke-width="2.25" stroke-linecap="square"
        stroke-linejoin="round" />
    <path
        d="M126.385 128.828C125.969 128.15 124.362 125.688 123.818 125.106C122.377 123.562 120.565 122.928 118.544 123.486C118.437 123.516 118.294 123.561 118.206 123.592C116.423 124.199 115.316 125.69 114.99 127.511C114.83 128.405 114.817 129.508 114.93 130.406C115.022 131.154 115.204 132.144 115.432 132.944"
        fill="#EB9656" />
    <path
        d="M126.385 128.828C125.969 128.15 124.362 125.688 123.818 125.106C122.377 123.562 120.565 122.928 118.544 123.486C118.437 123.516 118.294 123.561 118.206 123.592C116.423 124.199 115.316 125.69 114.99 127.511C114.83 128.405 114.817 129.508 114.93 130.406C115.022 131.154 115.204 132.144 115.432 132.944"
        stroke="#9F6926" stroke-width="2.25" stroke-miterlimit="10" />
    <path
        d="M121.281 130.608C121.094 130.167 120.924 129.722 120.763 129.27C120.62 128.872 120.483 128.47 120.369 128.062C120.311 127.864 120.258 127.66 120.21 127.459C120.198 127.416 120.193 127.376 120.184 127.335C120.157 127.209 120.206 127.471 120.179 127.311C120.163 127.218 120.148 127.124 120.136 127.028C120.094 126.708 119.823 126.417 119.479 126.456C119.165 126.492 118.867 126.773 118.908 127.11C119.015 127.973 119.293 128.814 119.583 129.629C119.746 130.09 119.923 130.553 120.115 131.004C120.242 131.301 120.571 131.517 120.898 131.389C121.19 131.278 121.417 130.926 121.281 130.608Z"
        fill="#9F6926" />
    <path
        d="M96.6672 125.27C99.5536 128.874 104.977 132.661 112.974 132.661C121.131 132.661 126.362 128.679 129.196 125.035"
        stroke="#9F6926" stroke-width="2.25" stroke-miterlimit="10" stroke-linecap="round"
        stroke-linejoin="round" />
    <path
        d="M114.39 114.717C114.497 113.888 114.259 113.094 113.784 112.479C113.31 111.865 112.602 111.432 111.773 111.325C110.944 111.217 110.148 111.457 109.535 111.93C108.919 112.402 108.487 113.112 108.381 113.941C108.272 114.77 108.512 115.566 108.984 116.179C109.458 116.795 110.166 117.229 110.995 117.336"
        stroke="#9F6926" stroke-width="2.25" stroke-linecap="round" stroke-linejoin="bevel" />
    <path
        d="M127.477 119.181C126.956 123.225 129.811 126.928 133.855 127.453C137.899 127.974 141.605 125.118 142.125 121.075C142.648 117.028 139.795 113.325 135.75 112.801C131.703 112.282 128 115.137 127.477 119.181Z"
        fill="#EB9656" />
    <path
        d="M137.397 118.102C137.521 118.557 137.246 119.028 136.792 119.15C136.338 119.274 135.866 119.003 135.745 118.545C135.622 118.088 135.892 117.62 136.346 117.499C136.802 117.374 137.274 117.645 137.397 118.102Z"
        fill="#B47A2C" />
    <path
        d="M135.794 121.998C135.912 122.454 135.643 122.926 135.186 123.047C134.73 123.17 134.261 122.897 134.14 122.442C134.017 121.986 134.288 121.517 134.742 121.392C135.2 121.269 135.669 121.543 135.794 121.998Z"
        fill="#B47A2C" />
    <path
        d="M132.326 120.385C132.799 120.385 133.182 120.002 133.182 119.53C133.182 119.057 132.799 118.674 132.326 118.674C131.854 118.674 131.471 119.057 131.471 119.53C131.471 120.002 131.854 120.385 132.326 120.385Z"
        fill="#B47A2C" />
    <path
        d="M84.2432 119.181C83.72 123.225 86.5752 126.928 90.6216 127.453C94.6656 127.974 98.3696 125.118 98.8904 121.075C99.4136 117.028 96.5592 113.325 92.5144 112.801C88.4688 112.282 84.7664 115.137 84.2432 119.181Z"
        fill="#EB9656" />
    <path
        d="M93.7736 118.442C93.896 118.898 93.6264 119.368 93.1696 119.491C92.7152 119.615 92.2432 119.344 92.1208 118.885C91.9984 118.428 92.2688 117.961 92.7232 117.839C93.1816 117.715 93.6504 117.986 93.7736 118.442Z"
        fill="#B47A2C" />
    <path
        d="M91.6352 123.074C92.1071 123.074 92.4896 122.692 92.4896 122.22C92.4896 121.748 92.1071 121.366 91.6352 121.366C91.1634 121.366 90.7808 121.748 90.7808 122.22C90.7808 122.692 91.1634 123.074 91.6352 123.074Z"
        fill="#B47A2C" />
    <path
        d="M89.8224 119.308C89.9448 119.765 89.6744 120.234 89.2208 120.356C88.7616 120.478 88.2912 120.207 88.1712 119.752C88.0464 119.294 88.3192 118.828 88.7736 118.703C89.2312 118.582 89.7 118.85 89.8224 119.308Z"
        fill="#B47A2C" />
    <path
        d="M127.202 121.246C127.202 121.246 127.673 123.765 129.224 125.239C130.779 126.712 132.72 127.509 134.354 127.45"
        stroke="#9F6926" stroke-width="2.25" stroke-miterlimit="10" stroke-linecap="round"
        stroke-linejoin="round" />
    <path
        d="M98.856 121.22C98.856 121.22 98.484 123.759 96.9888 125.289C95.4944 126.824 93.5856 127.697 91.9512 127.702"
        stroke="#9F6926" stroke-width="2.25" stroke-miterlimit="10" stroke-linecap="round"
        stroke-linejoin="round" />
    <path
        d="M163.398 129.78C163.398 129.78 175.654 131.334 178.374 134.41C180.063 136.321 178.58 138.629 177.311 140.79C176.042 142.952 175.105 144.552 175.105 144.552L182.285 150.267C182.285 150.267 186.81 143.601 188.002 138.561C189.007 134.308 188.07 129.323 184.16 126.67C180.442 124.149 174.43 121.79 163.078 120.863"
        fill="#EBC674" />
    <path
        d="M163.398 129.78C163.398 129.78 175.654 131.334 178.374 134.41C180.063 136.321 178.58 138.629 177.311 140.79C176.042 142.952 175.105 144.552 175.105 144.552L182.285 150.267C182.285 150.267 186.81 143.601 188.002 138.561C189.007 134.308 188.07 129.323 184.16 126.67C180.442 124.149 174.43 121.79 163.078 120.863"
        stroke="#B47A2C" stroke-width="2.25" stroke-miterlimit="10" stroke-linecap="round"
        stroke-linejoin="round" />
    <path
        d="M168.839 145.146C168.839 145.146 164.723 143.18 166.69 140.574C168.657 137.966 171.95 139.658 175.379 141.304C178.809 142.951 182.901 144.699 187.222 148.061C191.544 151.422 193.438 153.27 192.676 155.435C191.887 157.675 188.182 157.63 187.257 156.43C187.257 156.43 186.879 161.059 181.083 163.254C181.083 163.254 185.473 162.363 185.405 166.067C185.336 169.771 178.27 172.584 174.566 172.446C170.862 172.31 161.293 170.183 159.166 160.168C157.04 150.153 168.839 145.146 168.839 145.146Z"
        fill="#F4F4F5" stroke="#C4C4C4" stroke-width="2.25" stroke-miterlimit="10"
        stroke-linecap="round" stroke-linejoin="round" />
    <path
        d="M39.2576 108.595C39.2576 108.595 37.9712 108.087 36.12 103.938C34.2704 99.7904 33.5776 95.0632 35.7744 93.2336C36.1576 92.9136 36.5384 92.6864 36.9952 92.4784C37.4264 92.28 37.8 92.0944 38.2728 92.0192C38.7248 91.9472 39.1784 91.9736 39.6264 92.0624C39.9368 92.1248 40.2112 92.2424 40.5032 92.3592C40.9112 92.5264 41.3488 92.7832 41.6456 93.1184C42.0536 93.5808 42.4544 94.0408 42.772 94.5744C43.024 95.0008 43.2352 95.4512 43.4016 95.9176C43.66 96.632 43.8136 97.3232 44.0368 98.0488C44.22 98.6456 44.428 99.1248 44.6224 99.7184C44.788 100.222 44.9808 100.746 45.2824 101.322C45.7816 102.272 46.2184 103.279 46.8616 104.137C47.4912 104.975 48.1816 105.762 49.3072 105.835C49.7304 105.862 50.1968 105.911 50.6208 105.841C51.9072 105.63 53.1368 105.208 54.452 105.113C56.0416 104.996 57.852 105.206 58.9896 106.446C59.3 106.784 59.5408 107.181 59.7136 107.606C61.5624 112.134 60.2184 115.246 59.968 116.874C59.7192 118.504 62.6512 115.01 64.6464 118.005C66.6424 120.999 61.744 125.427 58.5808 128.81C55.4184 132.191 49.868 138.058 47.128 134.494C44.3888 130.928 46.628 131.239 43.1904 130.994C39.752 130.75 35.088 129.384 32.5744 125.946C30.06 122.509 30.2592 120.155 33.5344 116.887C34.9824 115.442 31.84 109.857 39.2576 108.595Z"
        fill="#F4F4F5" stroke="#C4C4C4" stroke-width="2.25" stroke-miterlimit="10"
        stroke-linecap="round" stroke-linejoin="round" />
    <path
        d="M33.7504 116.629C33.7504 116.629 39.2696 118.211 41.8448 120.27C44.4192 122.33 45.2184 125.046 42.8728 126.622C40.892 127.95 39.0768 127.365 37.6232 126.552"
        stroke="#C4C4C4" stroke-width="2.25" stroke-miterlimit="10" stroke-linecap="round"
        stroke-linejoin="round" />
    <path
        d="M39.2576 108.595C39.2576 108.595 44.3056 110.26 46.88 112.319C48.0728 113.272 49.4104 114.703 49.184 116.355C49.1008 116.97 48.9936 117.463 48.6712 118.002C48.3896 118.474 48.0192 118.86 47.5672 119.17C46.7328 119.74 45.9016 120.237 44.9112 120.454C44.668 120.507 44.4264 120.555 44.1872 120.587C43.7368 120.647 43.208 120.802 42.7552 120.749"
        stroke="#C4C4C4" stroke-width="2.25" stroke-miterlimit="10" stroke-linecap="round"
        stroke-linejoin="round" />
    <path
        d="M51.932 105.554C51.932 105.554 47.124 106.683 45.1664 108.962C44.1664 110.127 42.8496 111.375 42.5136 112.934C42.1144 114.781 43.6944 116.138 44.7304 117.434C45.1144 117.913 45.4944 118.39 45.8848 118.866C46.6904 119.85 47.9048 120.606 49.1664 120.818C49.8768 120.938 50.6424 120.826 51.2728 120.47C51.7424 120.205 52.1344 119.779 52.3712 119.296C52.748 118.526 52.6664 117.496 52.4656 116.688C52.272 115.912 52.0312 115.189 51.692 114.465C51.5968 114.262 51.4384 114.033 51.568 113.817C51.756 113.502 52.4312 113.51 52.7376 113.496C53.3504 113.468 53.9672 113.513 54.576 113.57C55.0832 113.618 55.5896 113.68 56.0928 113.758"
        fill="#F4F4F5" />
    <path
        d="M51.932 105.554C51.932 105.554 47.124 106.683 45.1664 108.962C44.1664 110.127 42.8496 111.375 42.5136 112.934C42.1144 114.781 43.6944 116.138 44.7304 117.434C45.1144 117.913 45.4944 118.39 45.8848 118.866C46.6904 119.85 47.9048 120.606 49.1664 120.818C49.8768 120.938 50.6424 120.826 51.2728 120.47C51.7424 120.205 52.1344 119.779 52.3712 119.296C52.748 118.526 52.6664 117.496 52.4656 116.688C52.272 115.912 52.0312 115.189 51.692 114.465C51.5968 114.262 51.4384 114.033 51.568 113.817C51.756 113.502 52.4312 113.51 52.7376 113.496C53.3504 113.468 53.9672 113.513 54.576 113.57C55.0832 113.618 55.5896 113.68 56.0928 113.758"
        stroke="#C4C4C4" stroke-width="2.25" stroke-miterlimit="10" stroke-linecap="round"
        stroke-linejoin="round" />
</svg>
