<svg width="28" height="28" viewBox="0 0 28 28" fill="none" xmlns="http://www.w3.org/2000/svg">
<path d="M23.625 5.25H4.375C3.89175 5.25 3.5 5.64175 3.5 6.125V21.875C3.5 22.3582 3.89175 22.75 4.375 22.75H23.625C24.1082 22.75 24.5 22.3582 24.5 21.875V6.125C24.5 5.64175 24.1082 5.25 23.625 5.25Z" stroke="#636778" stroke-width="2" stroke-linecap="round" stroke-linejoin="round"/>
<path d="M3.5 18.3749L9.00156 12.8733C9.08298 12.7907 9.18003 12.725 9.28706 12.6802C9.39409 12.6354 9.50897 12.6123 9.625 12.6123C9.74103 12.6123 9.85591 12.6354 9.96294 12.6802C10.07 12.725 10.167 12.7907 10.2484 12.8733L15.1266 17.7515C15.208 17.8341 15.305 17.8998 15.4121 17.9446C15.5191 17.9894 15.634 18.0125 15.75 18.0125C15.866 18.0125 15.9809 17.9894 16.0879 17.9446C16.195 17.8998 16.292 17.8341 16.3734 17.7515L18.6266 15.4983C18.708 15.4157 18.805 15.35 18.9121 15.3052C19.0191 15.2604 19.134 15.2373 19.25 15.2373C19.366 15.2373 19.4809 15.2604 19.5879 15.3052C19.695 15.35 19.792 15.4157 19.8734 15.4983L24.5 20.1249" stroke="#636778" stroke-width="2" stroke-linecap="round" stroke-linejoin="round"/>
<path d="M17.25 12.625C18.0784 12.625 18.75 11.9534 18.75 11.125C18.75 10.2966 18.0784 9.625 17.25 9.625C16.4216 9.625 15.75 10.2966 15.75 11.125C15.75 11.9534 16.4216 12.625 17.25 12.625Z" fill="#636778"/>
</svg>
