<svg width="24" height="24" viewBox="0 0 24 24" fill="none" xmlns="http://www.w3.org/2000/svg">
    <path
        d="M5.26879 9.74998C5.26754 8.86084 5.44222 7.98023 5.78275 7.15888C6.12329 6.33753 6.62296 5.59167 7.25299 4.96426C7.88302 4.33685 8.63095 3.84028 9.45371 3.50317C10.2765 3.16605 11.1578 2.99503 12.0469 2.99998C15.7594 3.02811 18.7313 6.11248 18.7313 9.83436V10.5C18.7313 13.8562 19.4344 15.8062 20.0532 16.875C20.1189 16.9888 20.1535 17.1179 20.1537 17.2493C20.1538 17.3808 20.1193 17.5099 20.0538 17.6238C19.9883 17.7378 19.894 17.8325 19.7804 17.8985C19.6667 17.9645 19.5377 17.9995 19.4063 18H4.59379C4.46237 17.9995 4.33337 17.9645 4.21972 17.8985C4.10607 17.8325 4.01177 17.7378 3.94626 17.6238C3.88074 17.5099 3.84632 17.3808 3.84644 17.2493C3.84655 17.1179 3.8812 16.9888 3.94692 16.875C4.56567 15.8062 5.26879 13.8562 5.26879 10.5V9.74998Z"
        stroke="white" stroke-width="1.5" stroke-linecap="round" stroke-linejoin="round" />
    <path
        d="M9 18V18.75C9 19.5456 9.31607 20.3087 9.87868 20.8713C10.4413 21.4339 11.2044 21.75 12 21.75C12.7956 21.75 13.5587 21.4339 14.1213 20.8713C14.6839 20.3087 15 19.5456 15 18.75V18"
        stroke="white" stroke-width="1.3" stroke-linecap="round" stroke-linejoin="round" />
</svg>
