<svg width="12" height="12" viewBox="0 0 12 12" fill="none" xmlns="http://www.w3.org/2000/svg">
    <path
        d="M4.5 10.125H2.25C2.15055 10.125 2.05516 10.0854 1.98484 10.0151C1.91451 9.9448 1.875 9.84941 1.875 9.74996V7.65465C1.87483 7.60595 1.88427 7.5577 1.90277 7.51266C1.92127 7.46762 1.94847 7.42666 1.98281 7.39215L7.60782 1.76715C7.64271 1.73171 7.6843 1.70358 7.73017 1.68437C7.77604 1.66516 7.82527 1.65527 7.875 1.65527C7.92473 1.65527 7.97396 1.66516 8.01983 1.68437C8.0657 1.70358 8.1073 1.73171 8.14219 1.76715L10.2328 3.85777C10.2682 3.89266 10.2964 3.93426 10.3156 3.98013C10.3348 4.026 10.3447 4.07523 10.3447 4.12496C10.3447 4.17469 10.3348 4.22392 10.3156 4.26979C10.2964 4.31566 10.2682 4.35725 10.2328 4.39215L4.5 10.125Z"
        stroke="#1B1C24" stroke-linecap="round" stroke-linejoin="round" />
    <path d="M10.125 10.125H4.5" stroke="#1B1C24" stroke-linecap="round" stroke-linejoin="round" />
    <path d="M6.375 3L9 5.625" stroke="#1B1C24" stroke-linecap="round" stroke-linejoin="round" />
</svg>
