<svg width="24" height="24" viewBox="0 0 24 24" fill="none" xmlns="http://www.w3.org/2000/svg">
<path d="M21.6 11.9999C21.6 17.3016 17.3021 21.6 12.0003 21.6C6.69854 21.6 2.40002 17.3016 2.40002 11.9999C2.40002 6.69819 6.69854 2.40002 12.0003 2.40002C17.3021 2.40002 21.6 6.69819 21.6 11.9999Z" fill="#AFB2BE"/>
<path d="M19.7518 11.9998C19.7518 16.2809 16.2808 19.7512 12.0003 19.7512C7.71928 19.7512 4.2489 16.2809 4.2489 11.9998C4.2489 7.71882 7.71928 4.24854 12.0003 4.24854C16.2808 4.24854 19.7518 7.71882 19.7518 11.9998Z" fill="white"/>
<path d="M15.9409 5.32434C17.6077 6.74603 18.6651 8.86126 18.6651 11.2237C18.6651 15.5047 15.1941 18.975 10.9136 18.975C9.47465 18.975 8.12756 18.5825 6.97278 17.8994C8.32629 19.0539 10.0817 19.7512 12.0003 19.7512C16.2808 19.7512 19.7517 16.281 19.7517 11.9999C19.7518 9.1579 18.2217 6.67364 15.9409 5.32434Z" fill="#EEEFF2"/>
<path d="M12.0003 12.5716C11.836 12.5716 11.7029 12.4384 11.7029 12.2742V7.29747C11.7029 7.13319 11.836 7 12.0003 7C12.1646 7 12.2978 7.13319 12.2978 7.29747V12.2742C12.2978 12.4384 12.1646 12.5716 12.0003 12.5716Z" fill="#262734" stroke="black" stroke-width="0.5"/>
<path d="M15.8889 10.7982L12.1278 12.552C11.9789 12.6214 11.8019 12.557 11.7325 12.4081C11.6631 12.2592 11.7275 12.0822 11.8764 12.0128L15.6374 10.259C15.7863 10.1896 15.9633 10.254 16.0328 10.4029C16.1022 10.5518 16.0377 10.7288 15.8889 10.7982Z" fill="#262734" stroke="black" stroke-width="0.5"/>
</svg>
