<svg width="20" height="20" viewBox="0 0 20 20" fill="none" xmlns="http://www.w3.org/2000/svg">
<path d="M2.5 3.96087V14.789C2.4999 14.8858 2.52229 14.9813 2.5654 15.068C2.60851 15.1547 2.67117 15.2301 2.74844 15.2885C2.8257 15.3468 2.91546 15.3864 3.01064 15.4041C3.10581 15.4218 3.2038 15.4172 3.29688 15.3906L17.0469 11.3827C17.1775 11.3454 17.2925 11.2664 17.3742 11.1579C17.456 11.0493 17.5001 10.9171 17.5 10.7812V7.96868C17.5001 7.83278 17.456 7.70053 17.3742 7.59198C17.2925 7.48343 17.1775 7.40449 17.0469 7.36712L3.29688 3.3593C3.2038 3.33268 3.10581 3.32804 3.01064 3.34576C2.91546 3.36347 2.8257 3.40305 2.74844 3.46138C2.67117 3.51971 2.60851 3.59519 2.5654 3.68187C2.52229 3.76855 2.4999 3.86406 2.5 3.96087Z" stroke="#4BF0C8" stroke-width="1.5" stroke-linecap="round" stroke-linejoin="round"/>
<path d="M14.375 12.1641V15C14.375 15.1658 14.3092 15.3247 14.1919 15.4419C14.0747 15.5592 13.9158 15.625 13.75 15.625H11.25C11.0842 15.625 10.9253 15.5592 10.8081 15.4419C10.6908 15.3247 10.625 15.1658 10.625 15V5.49219" stroke="#4BF0C8" stroke-width="1.5" stroke-linecap="round" stroke-linejoin="round"/>
</svg>
